<svg width="1382" height="161" viewBox="0 0 1382 161" fill="none" xmlns="http://www.w3.org/2000/svg">
<path d="M62.05 106.954L62.13 107.294C66.4833 107.312 70.7255 108.671 74.28 111.184C77.9342 113.723 80.4474 117.593 81.28 121.964C82.186 125.743 82.0929 129.692 81.01 133.424C79.9897 136.803 78.0551 139.835 75.42 142.184C72.7215 144.603 69.6908 146.623 66.42 148.184C62.8221 149.874 59.0448 151.152 55.16 151.994C43.0467 154.734 30.96 157.554 18.9 160.454L0 81.744C11.26 79.0773 22.5233 76.444 33.79 73.844C47.13 70.114 67.07 70.974 70.44 87.724C72.02 95.724 69.36 102.224 62.05 106.954ZM37.3 94.694L30.54 96.254L32.77 105.954L40.13 104.264C44.5 103.264 46.3 101.034 45.51 97.534C44.79 94.564 42.06 93.604 37.3 94.694ZM43.63 121.394L36.63 122.994C37.63 127.274 38.11 129.414 39.09 133.694C42.33 132.944 43.94 132.574 47.18 131.844C49.0588 131.517 50.7814 130.591 52.09 129.204C52.6096 128.6 52.9726 127.877 53.147 127.099C53.3214 126.321 53.3018 125.512 53.09 124.744C52.9353 123.885 52.5189 123.094 51.8978 122.48C51.2767 121.866 50.4812 121.459 49.62 121.314C47.6422 120.895 45.5959 120.923 43.63 121.394Z" fill="white"/>
<path d="M97.24 142.803C91.6734 116.397 86.1067 89.9932 80.54 63.5932C92.3867 61.0932 104.247 58.6699 116.12 56.3232C120.204 55.4702 124.369 55.0711 128.54 55.1332C132.399 55.2231 136.223 55.8974 139.88 57.1332C143.549 58.385 146.784 60.6614 149.2 63.6932C151.917 67.1899 153.703 71.3187 154.39 75.6932C155.306 80.235 154.828 84.9474 153.02 89.2132C151.127 93.5351 148.04 97.2266 144.12 99.8532C153.06 109.267 161.937 118.733 170.75 128.253C160.357 130.153 149.973 132.12 139.6 134.153C132.58 125.693 125.533 117.26 118.46 108.853L117.65 109.013C119.55 118.467 121.453 127.92 123.36 137.373C112.88 139.493 107.66 140.563 97.24 142.803ZM111.31 78.8032C112.31 83.9132 112.85 86.4732 113.88 91.5832L119.3 90.4932C125.68 89.2266 128.44 86.3899 127.58 81.9832C126.78 77.8732 123.58 76.3632 117.91 77.4832L111.31 78.8032Z" fill="white"/>
<path d="M178.35 126.883C173.543 100.33 168.74 73.7765 163.94 47.2232C173.273 45.5232 182.643 43.8765 192.05 42.2832C196.59 68.8699 201.137 95.4665 205.69 122.073C194.74 123.943 189.28 124.903 178.35 126.883Z" fill="white"/>
<path d="M253.15 114.363C242.337 116.05 231.533 117.777 220.74 119.543C216.333 92.9232 211.927 66.2999 207.52 39.6732C217.84 37.9599 228.173 36.2932 238.52 34.6732C243.626 33.86 248.79 33.462 253.96 33.4832C258.744 33.5271 263.501 34.1995 268.11 35.4832C272.432 36.641 276.513 38.5611 280.16 41.1532C283.802 43.9085 286.793 47.4319 288.92 51.4732C291.489 56.3118 293.14 61.5839 293.79 67.0232C294.763 73.2758 294.315 79.6674 292.48 85.7232C290.858 91.1114 287.892 95.9982 283.86 99.9232C279.848 103.766 275.225 106.915 270.18 109.243C264.777 111.755 259.042 113.479 253.15 114.363ZM244.15 57.2232L237.98 58.2232C239.76 69.5966 241.533 80.9699 243.3 92.3432L248.37 91.5532C259.37 90.5532 267.79 82.2432 265.82 70.8932C264.95 65.8932 262.74 61.9732 258.82 59.5532C254.9 57.1332 250.03 56.3132 244.12 57.2232H244.15Z" fill="white"/>
<path d="M352.26 102.955C340.57 104.405 328.39 102.175 318.59 95.3845C308.95 88.7145 303.26 77.8745 301.72 66.4745C300.18 55.0745 302.93 43.0445 310.57 34.1045C318.21 25.1645 329.57 19.7045 341.28 18.3645C347.577 17.6077 353.957 17.9221 360.15 19.2945C365.689 20.4123 370.911 22.745 375.44 26.1245C369.71 34.4145 366.88 38.5745 361.24 46.8945C357.093 42.9945 351.936 41.4045 345.77 42.1245C343.45 42.3794 341.206 43.1029 339.174 44.2512C337.142 45.3995 335.365 46.9486 333.95 48.8045C332.398 50.7545 331.271 53.0071 330.641 55.418C330.011 57.8288 329.891 60.3447 330.29 62.8045C331.02 68.7045 333.15 73.1445 336.64 76.1345C340.13 79.1245 345.04 80.2345 351.35 79.4845C353.577 79.3342 355.743 78.6885 357.69 77.5945C357.4 75.1445 357.26 73.9145 356.98 71.4645C351.7 72.0745 349.06 72.3845 343.78 73.0245L341.23 51.8045C353.856 50.2845 366.496 48.8479 379.15 47.4945C380.723 62.1612 382.29 76.8279 383.85 91.4945C379.49 94.5441 374.733 96.9802 369.71 98.7345C364.076 100.811 358.22 102.227 352.26 102.955Z" fill="white"/>
<path d="M398.13 95.8037C395.39 68.9637 392.647 42.1203 389.9 15.2737C399.34 14.307 408.783 13.387 418.23 12.5137C420.723 39.3803 423.21 66.2503 425.69 93.1237C414.66 94.1637 409.15 94.6937 398.13 95.8037Z" fill="white"/>
<path d="M440.85 91.8036C438.51 64.9236 436.177 38.0403 433.85 11.1536C443.183 10.3403 452.517 9.5736 461.85 8.8536C470.85 21.8536 479.757 34.9169 488.57 48.0436H489.04C487.707 34.4236 486.373 20.8003 485.04 7.1736C495.73 6.4336 501.04 6.08359 511.77 5.43359C513.397 32.3736 515.03 59.3069 516.67 86.2336C507.337 86.7936 498.003 87.4036 488.67 88.0636C480.217 75.7303 471.7 63.4469 463.12 51.2136H462.65C464.05 64.0269 465.44 76.8369 466.82 89.6436C456.43 90.4436 451.24 90.8736 440.85 91.8036Z" fill="white"/>
<path d="M573.35 85.3748C561.59 85.9148 549.64 82.7448 540.41 75.2348C531.18 67.7248 526.54 56.5748 525.85 45.1048C525.16 33.6348 528.85 21.8448 537.14 13.5148C545.43 5.18481 557.14 0.614814 568.92 0.194815C575.246 -0.0786009 581.572 0.722764 587.63 2.56482C593.059 4.11706 598.078 6.84873 602.33 10.5648C595.99 18.3948 592.85 22.3248 586.6 30.1848C582.773 25.9715 577.773 23.9715 571.6 24.1848C569.268 24.2674 566.976 24.8232 564.865 25.8185C562.754 26.8139 560.868 28.2279 559.32 29.9748C557.62 31.7938 556.316 33.9468 555.494 36.2968C554.671 38.6468 554.346 41.1424 554.54 43.6248C554.82 49.5648 556.587 54.1582 559.84 57.4048C563.093 60.6515 567.89 62.1448 574.23 61.8848C576.456 61.8956 578.658 61.4176 580.68 60.4848C580.59 58.0148 580.54 56.7848 580.45 54.3148C575.14 54.5148 572.45 54.6248 567.19 54.8448C566.82 46.3048 566.64 42.0348 566.28 33.4848C578.947 32.9448 591.64 32.4881 604.36 32.1148L605.67 76.3448C601.093 79.0478 596.167 81.1103 591.03 82.4748C585.27 84.1262 579.336 85.0994 573.35 85.3748Z" fill="white"/>
<path d="M648.37 81.2345C647.97 54.2545 647.574 27.2745 647.18 0.294544C666.414 0.0545443 685.644 -0.0387878 704.87 0.0145456L704.76 22.6545C694.46 22.5945 684.153 22.5945 673.84 22.6545V29.6545C683.5 29.5945 693.167 29.5945 702.84 29.6545C702.84 38.1145 702.84 42.3445 702.76 50.8045C693.173 50.7645 683.584 50.7645 673.99 50.8045V58.3545C684.83 58.3145 695.67 58.3145 706.51 58.3545C706.51 67.4045 706.43 71.9346 706.38 80.9946C687.06 80.9146 667.724 80.9945 648.37 81.2345Z" fill="white"/>
<path d="M708.4 80.9838C719.34 54.0238 730.523 27.1705 741.95 0.423828C751.95 0.590495 761.95 0.813826 771.95 1.09383C782.05 28.3338 791.903 55.6672 801.51 83.0938C791.57 82.7072 781.627 82.3738 771.68 82.0938C770.11 77.2838 769.32 74.8838 767.74 70.0938C757.33 69.8138 752.12 69.7038 741.74 69.5138C740.03 74.2438 739.19 76.6138 737.5 81.3338C727.78 81.1538 718.08 81.0372 708.4 80.9838ZM762.09 49.1038C759.63 41.0438 758.39 37.0038 755.89 28.9438C752.99 36.8838 751.55 40.8638 748.69 48.8038C754.05 48.9138 756.73 48.9738 762.09 49.1038Z" fill="white"/>
<path d="M833.84 86.8037C827.422 86.4916 821.106 85.0741 815.17 82.6137C809.569 80.4077 804.43 77.1719 800.02 73.0737C807.02 66.0737 810.5 62.6337 817.56 55.7137C819.69 58.1984 822.289 60.2376 825.21 61.7137C828.177 63.3315 831.466 64.2707 834.84 64.4637C838.93 64.6737 841.05 63.5237 841.18 61.0137C841.25 59.5637 840.42 58.3437 838.69 57.3337C834.915 55.4483 831.024 53.805 827.04 52.4137C820.54 49.9737 815.46 46.887 811.8 43.1537C808.14 39.4203 806.43 34.3037 806.67 27.8037C806.758 23.3554 808.009 19.0078 810.3 15.1937C812.419 11.6902 815.414 8.79876 818.99 6.80368C822.553 4.82253 826.397 3.39614 830.39 2.57367C834.523 1.72592 838.747 1.41335 842.96 1.64367C848.767 1.98711 854.463 3.38314 859.77 5.76368C865.134 8.06915 870.021 11.3554 874.18 15.4537C866.77 21.9037 863.09 25.1437 855.76 31.6537C854.035 29.3766 851.825 27.5116 849.29 26.1937C846.994 24.8947 844.44 24.1164 841.81 23.9137C837.26 23.6737 834.93 24.7837 834.81 27.2237C834.773 27.7662 834.898 28.3075 835.168 28.7792C835.439 29.2508 835.843 29.6317 836.33 29.8737C838.417 30.9353 840.568 31.8671 842.77 32.6637C844.99 33.5237 846.77 34.2237 848.06 34.6637C849.35 35.1037 851.11 35.9237 853.28 36.9537C855.107 37.7987 856.866 38.785 858.54 39.9037C860.074 40.9992 861.534 42.1952 862.91 43.4837C864.352 44.7708 865.584 46.2757 866.56 47.9437C867.479 49.6239 868.178 51.4153 868.64 53.2737C869.178 55.3992 869.377 57.5961 869.23 59.7837C868.663 68.917 864.883 75.8137 857.89 80.4737C850.792 85.1819 842.336 87.4077 833.84 86.8037Z" fill="white"/>
<path d="M922.05 32.1032C920.523 51.3632 918.997 70.6265 917.47 89.8932C906.53 89.0232 901.06 88.6132 890.11 87.8932L894.11 30.0632C885.94 29.5032 881.86 29.2332 873.69 28.7232C874.26 19.5432 874.55 14.9532 875.12 5.7832C898.233 7.27654 921.327 8.9932 944.4 10.9332C943.61 20.0932 943.22 24.6732 942.4 33.8232C934.29 33.0832 930.21 32.7432 922.05 32.1032Z" fill="white"/>
<path d="M1003.6 98.0045L998.6 91.6045C992.24 95.9045 984.327 97.5712 974.86 96.6045C970.952 96.2366 967.105 95.3799 963.41 94.0545C959.898 92.7992 956.587 91.0408 953.58 88.8345C950.607 86.6446 948.251 83.7234 946.74 80.3545C945.116 76.6822 944.488 72.6467 944.92 68.6545C945.248 63.9455 947.236 59.5055 950.53 56.1245C954.003 52.6129 958.301 50.0275 963.03 48.6045C958.09 43.5445 955.89 37.8045 956.48 31.3445C956.737 27.846 957.99 24.494 960.09 21.6845C962.118 19.0017 964.814 16.8983 967.91 15.5845C971.074 14.2275 974.408 13.309 977.82 12.8545C981.346 12.3938 984.913 12.3435 988.45 12.7045C996.317 13.5045 1002.91 16.0345 1008.22 20.2945C1013.53 24.5545 1015.78 30.3212 1014.95 37.5945C1014.59 41.8443 1012.63 45.7994 1009.47 48.6645C1005.69 51.8825 1001.39 54.4354 996.75 56.2145L1001.89 62.0445C1004.83 58.7245 1006.3 57.0445 1009.26 53.7645C1018.93 54.8178 1028.6 55.9278 1038.26 57.0945C1030.74 64.1145 1023.26 71.1845 1015.82 78.3045C1022.42 86.0578 1028.97 93.8445 1035.48 101.664C1024.85 100.384 1014.23 99.1645 1003.6 98.0045ZM976.26 63.8045C973.127 64.6445 971.413 66.5812 971.12 69.6145C970.988 70.5276 971.095 71.4595 971.432 72.3185C971.768 73.1776 972.323 73.9344 973.04 74.5145C974.527 75.7311 976.346 76.4701 978.26 76.6345C981.42 76.9545 983.81 76.3945 985.43 74.9545C981.78 70.4645 979.94 68.2345 976.26 63.8045ZM990.6 32.0345C990.156 31.48 989.599 31.0265 988.967 30.704C988.334 30.3816 987.64 30.1977 986.93 30.1645C986.207 30.0599 985.469 30.1072 984.765 30.3035C984.061 30.4998 983.405 30.8407 982.84 31.3045C982.315 31.7453 981.883 32.2862 981.568 32.8956C981.254 33.5051 981.065 34.171 981.01 34.8545C980.76 37.3645 982.01 39.7745 984.66 42.1145C988.953 40.9412 991.254 38.8778 991.56 35.9245C991.752 34.5464 991.408 33.1471 990.6 32.0145V32.0345Z" fill="white"/>
<path d="M1102.54 64.3648C1096.4 78.8848 1090.32 93.4282 1084.31 107.995C1073.31 106.475 1067.83 105.745 1056.84 104.335C1052.84 76.5948 1048.7 48.8882 1044.41 21.2148C1054.31 22.4015 1064.2 23.6448 1074.09 24.9448C1075.09 40.3648 1076.06 55.7915 1076.99 71.2248L1077.46 71.2848C1082.65 56.6782 1087.88 42.0815 1093.15 27.4948C1102.92 28.8282 1112.68 30.2182 1122.43 31.6648C1123.69 47.1848 1124.91 62.7048 1126.08 78.2248L1126.54 78.2948C1131.79 63.7415 1137.08 49.2048 1142.4 34.6848C1151.95 36.1515 1161.49 37.6748 1171.03 39.2548C1158.99 64.5882 1147.11 90.0082 1135.4 115.515C1124.4 113.805 1118.95 112.975 1107.98 111.365C1106.38 95.7115 1104.71 80.0682 1102.98 64.4348L1102.54 64.3648Z" fill="white"/>
<path d="M1165.36 120.373C1169.81 93.7665 1174.26 67.1532 1178.72 40.5332C1197.75 43.7599 1216.75 47.1332 1235.72 50.6532C1234.05 59.5532 1233.22 64.0032 1231.55 72.9032C1221.38 70.9965 1211.2 69.1432 1201.01 67.3432C1200.52 70.0932 1200.28 71.4632 1199.8 74.2132C1209.34 75.8932 1218.88 77.6265 1228.41 79.4132C1226.86 87.7232 1226.08 91.8832 1224.53 100.203C1215.07 98.4299 1205.6 96.7099 1196.12 95.0432L1194.81 102.473C1205.52 104.387 1216.23 106.34 1226.93 108.333C1225.25 117.233 1224.41 121.673 1222.74 130.573C1203.64 127.027 1184.51 123.627 1165.36 120.373Z" fill="white"/>
<path d="M1259.91 140.155C1253.58 138.883 1247.52 136.536 1241.99 133.215C1236.76 130.193 1232.14 126.226 1228.36 121.515C1236.36 115.665 1240.36 112.765 1248.36 106.975C1250.12 109.725 1252.4 112.104 1255.07 113.975C1257.78 116.02 1260.91 117.441 1264.23 118.135C1268.23 118.955 1270.5 118.135 1271.04 115.675C1271.33 114.255 1270.68 112.921 1269.11 111.675C1265.65 109.233 1262.03 107.025 1258.27 105.065C1252.18 101.671 1247.6 97.8581 1244.51 93.6248C1241.42 89.3914 1240.49 84.0881 1241.7 77.7148C1242.44 73.3246 1244.33 69.2089 1247.18 65.7847C1249.81 62.634 1253.21 60.2215 1257.05 58.7847C1260.9 57.356 1264.95 56.5231 1269.05 56.3147C1273.29 56.1001 1277.53 56.4363 1281.68 57.3147C1287.4 58.516 1292.85 60.7491 1297.77 63.9048C1302.75 66.9864 1307.12 70.9673 1310.65 75.6448C1302.33 80.9148 1298.18 83.5647 1289.93 88.8947C1288.55 86.3883 1286.63 84.2168 1284.32 82.5347C1282.23 80.909 1279.81 79.7559 1277.23 79.1548C1272.74 78.2481 1270.25 78.9914 1269.78 81.3848C1269.66 81.9163 1269.71 82.4705 1269.9 82.9776C1270.1 83.4847 1270.44 83.922 1270.89 84.2347C1272.81 85.5965 1274.82 86.8388 1276.89 87.9547C1278.96 89.1447 1280.62 90.1047 1281.89 90.7847C1283.16 91.4647 1284.73 92.4747 1286.74 93.7847C1288.42 94.8855 1290.01 96.1194 1291.5 97.4748C1292.86 98.7835 1294.13 100.183 1295.3 101.665C1296.56 103.158 1297.58 104.847 1298.3 106.665C1298.96 108.466 1299.39 110.345 1299.57 112.255C1299.79 114.438 1299.67 116.643 1299.19 118.785C1297.27 127.725 1292.49 133.975 1284.84 137.535C1277.05 141.142 1268.28 142.064 1259.91 140.155Z" fill="white"/>
<path d="M1355.71 99.3246C1351.33 118.145 1346.94 136.971 1342.54 155.805C1331.78 153.305 1326.4 152.075 1315.63 149.675C1319.83 130.815 1324.03 111.955 1328.22 93.0946C1320.22 91.3046 1316.22 90.4246 1308.13 88.6946C1310.06 79.6946 1311.03 75.2146 1312.96 66.2246C1335.72 71.1713 1358.43 76.3413 1381.08 81.7346C1378.93 90.6746 1377.86 95.1446 1375.71 104.075C1367.74 102.135 1363.73 101.185 1355.71 99.3246Z" fill="white"/>
</svg>
