<svg width="136" height="660" viewBox="0 0 136 660" fill="none" xmlns="http://www.w3.org/2000/svg">
<path d="M83.6637 646.8L83.9171 646.549L83.6928 648.895L83.4394 649.145L83.6637 646.8Z" fill="#C9893E"/>
<path d="M83.4268 646.789L82.9397 646.318L82.673 648.667L83.1601 649.139L83.4268 646.789Z" fill="#A35E0F"/>
<path d="M83.4106 646.805L83.854 646.549L83.1668 646.068L82.7233 646.324L83.4106 646.805Z" fill="#FFB35C"/>
<path d="M85.736 648.03L85.9894 647.78L85.7652 650.125L85.5118 650.376L85.736 648.03Z" fill="#C9893E"/>
<path d="M85.499 648.019L85.012 647.548L84.7453 649.897L85.2324 650.369L85.499 648.019Z" fill="#A35E0F"/>
<path d="M85.483 648.035L85.9264 647.779L85.2391 647.298L84.7957 647.555L85.483 648.035Z" fill="#FFB35C"/>
<path d="M81.6957 648.131C81.6725 646.487 80.9348 645.106 80.0454 645.026C79.8635 645.017 79.6969 645.067 79.5341 645.148L79.5355 645.138L79.0769 645.451L80.1594 651.168L80.7302 650.794C80.7396 650.784 80.7475 650.784 80.7569 650.774L80.7743 650.764C81.3269 650.35 81.7083 649.341 81.6957 648.131Z" fill="#383838"/>
<path d="M79.5351 645.284C80.4496 645.354 81.2065 646.747 81.2315 648.392C81.2566 650.038 80.5336 651.311 79.6192 651.241C78.7047 651.171 77.9478 649.779 77.9227 648.133C77.9058 646.487 78.6207 645.214 79.5351 645.284Z" fill="#666666"/>
<path d="M78.5082 649.58C78.1001 648.481 78.1469 647.009 78.6034 646.283C78.6956 646.132 78.803 646.041 78.9062 645.98L78.9076 645.97L79.2275 645.829L80.0999 650.405L79.7019 650.597C79.694 650.597 79.6926 650.607 79.6847 650.607L79.6768 650.607C79.2686 650.758 78.8069 650.386 78.5082 649.58Z" fill="#3B3B3B"/>
<path d="M78.9459 646.168C78.4829 646.894 78.4441 648.367 78.8508 649.466C79.2575 650.565 79.9782 650.857 80.4412 650.131C80.9043 649.404 80.943 647.931 80.5364 646.832C80.1202 645.743 79.409 645.441 78.9459 646.168Z" fill="#4D4D4D"/>
<path d="M91.2134 650.927L91.1536 651.935L90.0686 652.564L86.6695 649.999L85.5453 651.616L84.4602 652.245L84.0099 650.838L84.2525 651.001L85.3767 649.384L85.4953 648.692L82.7555 646.953L82.5746 646.403L78.4675 644.162L79.5423 643.543L82.787 644.947L87.5092 647.943L91.2134 650.927Z" fill="#4A4843"/>
<path d="M89.6077 652.857C89.5845 651.213 88.8467 649.832 87.9573 649.752C87.7754 649.742 87.6088 649.793 87.446 649.874L87.4474 649.864L86.9888 650.177L88.0714 655.894L88.6422 655.52C88.6516 655.51 88.6596 655.51 88.669 655.5L88.6863 655.49C89.2389 655.076 89.6203 654.067 89.6077 652.857Z" fill="#383838"/>
<path d="M87.4567 650.01C88.3713 650.08 89.1283 651.472 89.1535 653.118C89.1786 654.764 88.4555 656.037 87.5409 655.967C86.6263 655.897 85.8692 654.504 85.8441 652.859C85.8189 651.213 86.5421 649.94 87.4567 650.01Z" fill="#666666"/>
<path d="M86.4202 654.305C86.0121 653.207 86.0589 651.735 86.5154 651.009C86.6075 650.858 86.715 650.767 86.8182 650.706L86.8196 650.696L87.1395 650.555L88.0118 655.131L87.6138 655.322C87.6059 655.322 87.6045 655.333 87.5966 655.333L87.5887 655.333C87.1806 655.484 86.7189 655.112 86.4202 654.305Z" fill="#3B3B3B"/>
<path d="M86.8578 650.894C86.3947 651.62 86.356 653.093 86.7627 654.192C87.1774 655.291 87.8901 655.583 88.3532 654.856C88.8162 654.13 88.855 652.657 88.4483 651.558C88.0321 650.469 87.3208 650.167 86.8578 650.894Z" fill="#4D4D4D"/>
<path d="M88.2246 652.852C88.1937 652.438 87.9708 652.094 87.717 652.074C87.664 652.074 87.619 652.084 87.5817 652.104L87.3212 652.246L87.7042 653.68L87.9931 653.518L88.0019 653.518C88.1528 653.417 88.2475 653.165 88.2246 652.852Z" fill="#3B3B3B"/>
<path d="M87.4426 652.211C87.6886 652.231 87.9213 652.575 87.9523 652.989C87.9834 653.403 87.8027 653.716 87.5557 653.706C87.3096 653.686 87.0769 653.342 87.0459 652.928C87.0149 652.514 87.1867 652.201 87.4426 652.211Z" fill="#666666"/>
<path d="M86.431 648.56L81.7007 645.564L78.4667 644.16L78.4052 645.199L81.5107 646.643L82.0938 650.718L84.4574 652.242L86.2392 649.669L86.6569 649.986L90.0549 652.551L90.1146 651.543L86.431 648.56ZM85.3742 649.372L84.2504 650.988L84.0079 650.825L82.7645 650.038L82.3922 647.48L82.5102 646.798L82.7533 646.952L85.4825 648.69L85.3742 649.372Z" fill="#7C7971"/>
<path d="M83.1318 649.794L82.7873 647.266L82.8318 646.974L82.5554 646.802L82.452 647.477L82.7965 650.005L84.2109 650.945L84.4129 650.644L83.1318 649.794Z" fill="#4A4843"/>
<path d="M80.3126 648.126C80.2818 647.712 80.0589 647.369 79.8051 647.348C79.7521 647.348 79.7071 647.358 79.6698 647.379L79.4093 647.52L79.7922 648.954L80.0811 648.793L80.09 648.793C80.2417 648.682 80.3365 648.429 80.3126 648.126Z" fill="#3B3B3B"/>
<path d="M79.5206 647.485C79.7667 647.505 79.9993 647.849 80.0303 648.263C80.0613 648.677 79.8807 648.99 79.6337 648.98C79.3867 648.97 79.155 648.616 79.124 648.202C79.093 647.788 79.2746 647.465 79.5206 647.485Z" fill="#666666"/>
<path d="M43.1705 622.678L43.4239 622.427L43.1996 624.773L42.9514 625.023L43.1705 622.678Z" fill="#C9893E"/>
<path d="M42.9367 622.667L42.4475 622.195L42.1866 624.545L42.6758 625.017L42.9367 622.667Z" fill="#A35E0F"/>
<path d="M42.9175 622.683L43.3609 622.426L42.6736 621.946L42.2302 622.202L42.9175 622.683Z" fill="#FFB35C"/>
<path d="M45.2424 623.908L45.4962 623.657L45.2724 625.993L45.0238 626.244L45.2424 623.908Z" fill="#C9893E"/>
<path d="M45.009 623.897L44.5193 623.426L44.258 625.775L44.7489 626.237L45.009 623.897Z" fill="#A35E0F"/>
<path d="M44.9897 623.913L45.4331 623.657L44.7459 623.176L44.3025 623.432L44.9897 623.913Z" fill="#FFB35C"/>
<path d="M41.2022 624.009C41.1789 622.365 40.4407 620.984 39.5508 620.904C39.3688 620.894 39.2022 620.945 39.0393 621.025L39.0327 621.015L38.5738 621.328L39.6572 627.046L40.2283 626.672C40.2377 626.662 40.2456 626.662 40.255 626.652L40.2724 626.642C40.8332 626.228 41.2148 625.219 41.2022 624.009Z" fill="#383838"/>
<path d="M39.0514 621.162C39.966 621.232 40.723 622.624 40.7482 624.27C40.7733 625.916 40.0502 627.189 39.1356 627.119C38.221 627.049 37.464 625.656 37.4388 624.011C37.4137 622.365 38.1368 621.092 39.0514 621.162Z" fill="#666666"/>
<path d="M38.0155 625.447C37.6075 624.349 37.6542 622.877 38.1107 622.151C38.2028 621.999 38.3103 621.909 38.4135 621.848L38.4149 621.838L38.7347 621.697L39.6069 626.273L39.209 626.464C39.2011 626.464 39.1997 626.474 39.1918 626.474L39.1839 626.474C38.7743 626.636 38.3127 626.264 38.0155 625.447Z" fill="#3B3B3B"/>
<path d="M38.4526 622.046C37.9896 622.772 37.9509 624.245 38.3575 625.344C38.7722 626.443 39.4848 626.735 39.9477 626.008C40.4107 625.282 40.4495 623.809 40.0429 622.71C39.6282 621.611 38.9156 621.319 38.4526 622.046Z" fill="#4D4D4D"/>
<path d="M50.7203 626.805L50.6606 627.813L49.5761 628.432L46.1768 625.867L45.052 627.494L43.9766 628.123L43.5263 626.716L43.7688 626.879L44.8834 625.262L45.002 624.57L42.2718 622.831L42.0916 622.271L37.9739 620.04L39.0585 619.421L42.2942 620.814L47.016 623.821L50.7203 626.805Z" fill="#4A4843"/>
<path d="M49.1152 628.735C49.092 627.091 48.3536 625.71 47.4634 625.63C47.2814 625.62 47.1147 625.67 46.9517 625.751L46.9452 625.741L46.4862 626.054L47.5697 631.772L48.141 631.398C48.1504 631.388 48.1583 631.388 48.1677 631.378L48.1851 631.368C48.7541 630.954 49.1358 629.945 49.1152 628.735Z" fill="#383838"/>
<path d="M46.9635 625.888C47.878 625.957 48.635 627.35 48.6601 628.996C48.6852 630.642 47.9621 631.915 47.0475 631.845C46.133 631.775 45.376 630.382 45.3509 628.736C45.3258 627.091 46.0489 625.818 46.9635 625.888Z" fill="#666666"/>
<path d="M45.9371 630.183C45.529 629.085 45.5757 627.613 46.0323 626.887C46.1244 626.735 46.2318 626.645 46.3351 626.584L46.3365 626.574L46.6564 626.432L47.5288 631.008L47.1308 631.2C47.1229 631.2 47.1215 631.21 47.1136 631.21L47.1057 631.21C46.6974 631.362 46.2358 630.989 45.9371 630.183Z" fill="#3B3B3B"/>
<path d="M46.3746 626.771C45.9116 627.498 45.8729 628.971 46.2795 630.07C46.6942 631.169 47.4068 631.461 47.8698 630.734C48.3328 630.008 48.3716 628.535 47.9649 627.436C47.5502 626.337 46.8376 626.045 46.3746 626.771Z" fill="#4D4D4D"/>
<path d="M47.7317 628.73C47.7008 628.316 47.4779 627.972 47.224 627.952C47.171 627.952 47.1259 627.962 47.0887 627.982L46.8281 628.123L47.2112 629.558L47.5002 629.396L47.509 629.396C47.6696 629.285 47.7556 629.033 47.7317 628.73Z" fill="#3B3B3B"/>
<path d="M46.9495 628.089C47.1955 628.109 47.4282 628.452 47.4592 628.867C47.4903 629.281 47.3096 629.594 47.0626 629.584C46.8166 629.563 46.5839 629.22 46.5529 628.806C46.5218 628.391 46.7035 628.068 46.9495 628.089Z" fill="#666666"/>
<path d="M45.9381 624.428L41.2077 621.432L37.9738 620.028L37.9123 621.067L41.0178 622.511L41.6009 626.586L43.9645 628.109L45.7463 625.537L46.164 625.854L49.562 628.419L49.6217 627.411L45.9381 624.428ZM44.8807 625.25L43.7569 626.866L43.5144 626.703L42.271 625.915L41.8987 623.358L42.0167 622.676L42.2598 622.83L44.989 624.568L44.8807 625.25Z" fill="#7C7971"/>
<path d="M42.648 625.672L42.2943 623.144L42.3387 622.852L42.0715 622.68L41.9596 623.344L42.3126 625.883L43.7179 626.823L43.9199 626.521L42.648 625.672Z" fill="#4A4843"/>
<path d="M39.8196 624.004C39.7887 623.59 39.5658 623.246 39.3119 623.226C39.259 623.226 39.2139 623.236 39.1767 623.256L38.9162 623.398L39.2991 624.832L39.5881 624.671L39.5969 624.671C39.7487 624.559 39.8434 624.307 39.8196 624.004Z" fill="#3B3B3B"/>
<path d="M39.0374 623.363C39.2835 623.383 39.5162 623.727 39.5472 624.141C39.5782 624.555 39.3976 624.868 39.1506 624.858C38.9045 624.838 38.6718 624.494 38.6408 624.08C38.6098 623.666 38.7826 623.343 39.0374 623.363Z" fill="#666666"/>
<path d="M53.1479 627.962L54.2584 631.936L74.1438 644.054L76.351 642.095L53.1479 627.962Z" fill="#252B30"/>
<path d="M113.553 648.998L99.6659 655.493L99.5435 659.373L111.799 652.342L113.553 648.998Z" fill="#484E54"/>
<path d="M92.4893 651.449L100.403 656.364L99.4255 659.271L93.5369 655.671L92.4893 651.449Z" fill="#252B30"/>
<path d="M26.4192 612.083L37.6476 618.628L35.124 620.683L28.0515 616.37L26.4192 612.083Z" fill="#252B30"/>
<path d="M40.0965 603.741L27.0389 611.234L99.747 655.539L112.814 648.046L40.0965 603.741Z" fill="#D48579"/>
<path d="M77.2311 642.118L99.8451 656.388L77.2311 642.118Z" fill="#2E3133"/>
<path d="M27.0552 611.133L27.0248 612.095L99.717 656.388L99.7473 655.425L27.0552 611.133Z" fill="#666666"/>
<path d="M113.567 648.046L100.516 655.528L100.486 656.489L113.536 649.017L113.567 648.046Z" fill="#B0B0B0"/>
<path d="M110.749 646.413L111.487 646.854L102.642 651.928L102.67 651.047L110.749 646.413Z" fill="#D48579"/>
<path d="M102.698 655.345L113.019 649.19L112.78 651.571L102.458 657.726L102.698 655.345Z" fill="#ABABAB"/>
<path d="M102.475 655.231L102.182 654.95L102 657.296L102.293 657.577L102.475 655.231Z" fill="#8E8E8E"/>
<path d="M102.468 655.387L112.994 649.19L112.559 648.903L102.042 655.1L102.468 655.387Z" fill="#CCCCCC"/>
<path d="M104.051 655.087C104.173 654.593 104.527 654.17 104.848 654.151C104.913 654.151 104.969 654.161 105.024 654.191L105.051 654.202C105.061 654.202 105.06 654.212 105.07 654.212L105.441 654.455L104.674 656.178L104.23 655.894C104.23 655.894 104.22 655.894 104.221 655.884C104.031 655.753 103.964 655.45 104.051 655.087Z" fill="#828282"/>
<path d="M105.263 654.407C104.943 654.426 104.59 654.849 104.467 655.343C104.345 655.837 104.51 656.221 104.831 656.201C105.151 656.182 105.504 655.759 105.627 655.265C105.749 654.771 105.584 654.388 105.263 654.407Z" fill="#A1A1A1"/>
<path d="M110.646 651.342C110.769 650.848 111.122 650.426 111.443 650.406C111.509 650.406 111.564 650.417 111.619 650.447L111.647 650.457C111.656 650.457 111.655 650.467 111.665 650.467L112.036 650.71L111.269 652.434L110.825 652.15C110.825 652.15 110.816 652.15 110.816 652.14C110.626 652.008 110.559 651.705 110.646 651.342Z" fill="#828282"/>
<path d="M111.858 650.663C111.538 650.682 111.185 651.105 111.062 651.599C110.94 652.093 111.105 652.476 111.426 652.457C111.746 652.438 112.099 652.015 112.222 651.521C112.344 651.027 112.179 650.643 111.858 650.663Z" fill="#A1A1A1"/>
<path d="M111.847 629.45L41.6579 585.097L28.5485 592.773L29.2998 593.234L29.2901 593.234L98.7736 637.177L111.847 629.45Z" fill="#6BCCE6"/>
<path d="M31.9458 593.24L31.9762 593.22L31.1585 592.728L41.5513 586.709L109.18 629.443L98.8784 635.564L31.9458 593.24Z" fill="#4882DE"/>
<path d="M112.777 648.052L100.499 655.595L101.555 637.066L113.837 629.453L112.777 648.052Z" fill="#5E99DE"/>
<path d="M102.78 637.864L112.432 631.846L111.559 647.222L101.902 653.302L102.78 637.864Z" fill="#427ADE"/>
<path d="M98.8041 636.749L29.3547 592.615L28.2456 611.405L97.701 655.438L98.8041 636.749Z" fill="#3B74DE"/>
<path d="M29.559 610.598L30.4802 595.004L97.5007 637.556L96.5855 653.048L29.559 610.598Z" fill="#1950E2"/>
<path d="M27.6681 610.368L28.0649 595.004L28.6403 595.45L28.2659 609.944L27.6681 610.368Z" fill="#5E99DE"/>
<path d="M98.4693 652.177L98.4419 653.048L28.3927 610.368L29.1587 609.938L98.4693 652.177Z" fill="#4882DE"/>
<path d="M29.6169 595.763L28.9457 610.841L29.2881 611.323L29.9593 596.245L29.6169 595.763Z" fill="#3B74DE"/>
<path d="M30.4535 596.536L30.3022 596.255L29.7543 611.329L29.9259 611.05L30.4535 596.536Z" fill="#5E99DE"/>
<path d="M31.8215 597.085L31.1466 612.164L31.4957 612.635L32.1702 597.567L31.8215 597.085Z" fill="#3B74DE"/>
<path d="M32.6645 597.858L32.5134 597.577L31.9654 612.641L32.1365 612.373L32.6645 597.858Z" fill="#5E99DE"/>
<path d="M34.0325 598.407L33.3575 613.486L33.7066 613.958L34.3812 598.889L34.0325 598.407Z" fill="#3B74DE"/>
<path d="M34.8754 599.181L34.7244 598.899L34.1764 613.964L34.3475 613.695L34.8754 599.181Z" fill="#5E99DE"/>
<path d="M36.2399 599.729L35.5689 614.798L35.9113 615.28L36.5828 600.201L36.2399 599.729Z" fill="#3B74DE"/>
<path d="M37.0763 600.503L36.9254 600.212L36.3774 615.286L36.5487 615.017L37.0763 600.503Z" fill="#5E99DE"/>
<path d="M38.4445 601.052L37.7699 616.12L38.1186 616.602L38.7936 601.524L38.4445 601.052Z" fill="#3B74DE"/>
<path d="M39.2871 601.825L39.1365 601.534L38.5883 616.608L38.7597 616.329L39.2871 601.825Z" fill="#5E99DE"/>
<path d="M40.6525 602.364L39.9808 617.442L40.3228 617.924L40.9944 602.846L40.6525 602.364Z" fill="#3B74DE"/>
<path d="M41.4982 603.147L41.3423 602.856L40.7894 617.931L40.9662 617.652L41.4982 603.147Z" fill="#5E99DE"/>
<path d="M42.863 603.686L42.1918 618.765L42.5342 619.247L43.2054 604.168L42.863 603.686Z" fill="#3B74DE"/>
<path d="M43.6996 604.46L43.5483 604.178L43.0004 619.253L43.172 618.974L43.6996 604.46Z" fill="#5E99DE"/>
<path d="M45.0675 605.009L44.3925 620.087L44.7416 620.559L45.4162 605.491L45.0675 605.009Z" fill="#3B74DE"/>
<path d="M45.9105 605.782L45.7594 605.501L45.2114 620.565L45.3825 620.296L45.9105 605.782Z" fill="#5E99DE"/>
<path d="M47.2753 606.331L46.6034 621.409L46.9459 621.881L47.6173 606.813L47.2753 606.331Z" fill="#3B74DE"/>
<path d="M48.1214 607.104L47.9651 606.823L47.4124 621.887L47.5889 621.619L48.1214 607.104Z" fill="#5E99DE"/>
<path d="M49.4858 607.653L48.8149 622.722L49.1573 623.204L49.8287 608.125L49.4858 607.653Z" fill="#3B74DE"/>
<path d="M50.3223 608.427L50.1714 608.135L49.6234 623.21L49.7947 622.941L50.3223 608.427Z" fill="#5E99DE"/>
<path d="M51.6904 608.975L51.0159 624.044L51.3646 624.526L52.0395 609.447L51.6904 608.975Z" fill="#3B74DE"/>
<path d="M52.5331 609.749L52.3824 609.458L51.8343 624.532L52.0056 624.253L52.5331 609.749Z" fill="#5E99DE"/>
<path d="M53.8984 610.288L53.2268 625.366L53.5687 625.848L54.2404 610.77L53.8984 610.288Z" fill="#3B74DE"/>
<path d="M54.7441 611.071L54.5883 610.78L54.0354 625.854L54.2122 625.575L54.7441 611.071Z" fill="#5E99DE"/>
<path d="M56.109 611.61L55.4378 626.689L55.7802 627.171L56.4514 612.092L56.109 611.61Z" fill="#3B74DE"/>
<path d="M56.9456 612.383L56.7943 612.102L56.2464 627.177L56.418 626.898L56.9456 612.383Z" fill="#5E99DE"/>
<path d="M58.3137 612.932L57.6389 628.011L57.9875 628.493L58.6623 613.414L58.3137 612.932Z" fill="#3B74DE"/>
<path d="M59.1565 613.706L59.0055 613.424L58.4573 628.499L58.6287 628.22L59.1565 613.706Z" fill="#5E99DE"/>
<path d="M60.5212 614.255L59.8494 629.333L60.1919 629.805L60.8633 614.737L60.5212 614.255Z" fill="#3B74DE"/>
<path d="M61.3674 615.028L61.2111 614.747L60.6584 629.811L60.8349 629.542L61.3674 615.028Z" fill="#5E99DE"/>
<path d="M62.7256 615.577L62.0506 630.655L62.3997 631.127L63.0742 616.059L62.7256 615.577Z" fill="#3B74DE"/>
<path d="M63.5685 616.35L63.4175 616.069L62.8695 631.133L63.0406 630.864L63.5685 616.35Z" fill="#5E99DE"/>
<path d="M64.9365 616.899L64.262 631.968L64.6107 632.45L65.2856 617.371L64.9365 616.899Z" fill="#3B74DE"/>
<path d="M65.7792 617.673L65.6285 617.381L65.0804 632.456L65.2514 632.187L65.7792 617.673Z" fill="#5E99DE"/>
<path d="M67.1442 618.221L66.4728 633.29L66.8148 633.772L67.4867 618.693L67.1442 618.221Z" fill="#3B74DE"/>
<path d="M67.9901 618.995L67.8342 618.703L67.2814 633.778L67.4581 633.499L67.9901 618.995Z" fill="#5E99DE"/>
<path d="M69.3488 619.534L68.674 634.612L69.0226 635.094L69.6973 620.016L69.3488 619.534Z" fill="#3B74DE"/>
<path d="M70.1912 620.317L70.0405 620.026L69.4923 635.1L69.6637 634.821L70.1912 620.317Z" fill="#5E99DE"/>
<path d="M71.5597 620.856L70.8849 635.935L71.2335 636.417L71.9083 621.338L71.5597 620.856Z" fill="#3B74DE"/>
<path d="M72.4025 621.629L72.2515 621.348L71.7033 636.422L71.8747 636.144L72.4025 621.629Z" fill="#5E99DE"/>
<path d="M73.7673 622.178L73.0955 637.257L73.438 637.729L74.1094 622.66L73.7673 622.178Z" fill="#3B74DE"/>
<path d="M74.6134 622.952L74.4572 622.67L73.9045 637.735L74.081 637.466L74.6134 622.952Z" fill="#5E99DE"/>
<path d="M75.9716 623.5L75.2966 638.579L75.6457 639.051L76.3202 623.982L75.9716 623.5Z" fill="#3B74DE"/>
<path d="M76.8145 624.274L76.6635 623.993L76.1155 639.057L76.2865 638.788L76.8145 624.274Z" fill="#5E99DE"/>
<path d="M78.1825 624.823L77.508 639.891L77.8566 640.373L78.5316 625.295L78.1825 624.823Z" fill="#3B74DE"/>
<path d="M79.0253 625.596L78.8746 625.305L78.3265 640.379L78.4975 640.111L79.0253 625.596Z" fill="#5E99DE"/>
<path d="M80.3903 626.145L79.7189 641.214L80.0609 641.696L80.7327 626.617L80.3903 626.145Z" fill="#3B74DE"/>
<path d="M81.2362 626.919L81.0803 626.627L80.5274 641.702L80.7042 641.423L81.2362 626.919Z" fill="#5E99DE"/>
<path d="M82.5947 627.457L81.92 642.536L82.2685 643.018L82.9433 627.939L82.5947 627.457Z" fill="#3B74DE"/>
<path d="M83.4372 628.241L83.2865 627.95L82.7383 643.024L82.9097 642.745L83.4372 628.241Z" fill="#5E99DE"/>
<path d="M84.8058 628.78L84.131 643.858L84.4796 644.34L85.1544 629.262L84.8058 628.78Z" fill="#3B74DE"/>
<path d="M85.6486 629.553L85.4976 629.272L84.9494 644.346L85.1208 644.067L85.6486 629.553Z" fill="#5E99DE"/>
<path d="M87.0134 630.102L86.3418 645.181L86.6837 645.662L87.3554 630.584L87.0134 630.102Z" fill="#3B74DE"/>
<path d="M87.8595 630.875L87.7032 630.594L87.1504 645.669L87.3272 645.39L87.8595 630.875Z" fill="#5E99DE"/>
<path d="M89.2177 631.424L88.5427 646.503L88.8918 646.975L89.5663 631.906L89.2177 631.424Z" fill="#3B74DE"/>
<path d="M90.0606 632.198L89.9095 631.916L89.3616 646.981L89.5326 646.712L90.0606 632.198Z" fill="#5E99DE"/>
<path d="M91.4286 632.747L90.7536 647.825L91.1027 648.297L91.7773 633.229L91.4286 632.747Z" fill="#3B74DE"/>
<path d="M92.2716 633.52L92.1205 633.239L91.5725 648.303L91.7436 648.034L92.2716 633.52Z" fill="#5E99DE"/>
<path d="M93.6362 634.069L92.9649 649.137L93.3069 649.619L93.9787 634.541L93.6362 634.069Z" fill="#3B74DE"/>
<path d="M94.4822 634.842L94.3263 634.551L93.7734 649.625L93.9498 649.357L94.4822 634.842Z" fill="#5E99DE"/>
<path d="M95.8405 635.391L95.1659 650.46L95.5146 650.942L96.1896 635.863L95.8405 635.391Z" fill="#3B74DE"/>
<path d="M96.6832 636.165L96.5326 635.873L95.9844 650.948L96.1558 650.669L96.6832 636.165Z" fill="#5E99DE"/>
<path d="M98.0518 636.703L97.377 651.782L97.7256 652.264L98.4003 637.185L98.0518 636.703Z" fill="#3B74DE"/>
<path d="M98.8943 637.487L98.7437 637.196L98.1955 652.27L98.3669 651.991L98.8943 637.487Z" fill="#5E99DE"/>
<path d="M112.006 647.287L112.403 631.933L111.805 632.368L111.43 646.862L112.006 647.287Z" fill="#1C4DE2"/>
<path d="M101.93 652.388L101.902 653.258L112.172 647.212L111.434 646.782L101.93 652.388Z" fill="#6BCCE6"/>
<path d="M111.122 632.65L110.451 647.718L110.056 648.197L110.728 633.118L111.122 632.65Z" fill="#5E99DE"/>
<path d="M110.102 633.401L110.276 633.112L109.729 648.186L109.576 647.915L110.102 633.401Z" fill="#1C4DE2"/>
<path d="M109.337 633.704L108.665 648.782L108.27 649.261L108.942 634.182L109.337 633.704Z" fill="#5E99DE"/>
<path d="M108.317 634.455L108.49 634.176L107.943 649.25L107.791 648.969L108.317 634.455Z" fill="#1C4DE2"/>
<path d="M107.541 634.768L106.873 649.836L106.485 650.315L107.153 635.236L107.541 634.768Z" fill="#5E99DE"/>
<path d="M106.531 635.519L106.704 635.23L106.158 650.305L106.005 650.023L106.531 635.519Z" fill="#1C4DE2"/>
<path d="M105.755 635.822L105.087 650.9L104.699 651.369L105.367 636.3L105.755 635.822Z" fill="#5E99DE"/>
<path d="M104.74 636.573L104.919 636.294L104.368 651.359L104.209 651.087L104.74 636.573Z" fill="#1C4DE2"/>
<path d="M103.97 636.876L103.298 651.955L102.903 652.433L103.575 637.355L103.97 636.876Z" fill="#5E99DE"/>
<path d="M102.949 637.637L103.123 637.348L102.577 652.423L102.424 652.141L102.949 637.637Z" fill="#1C4DE2"/>
<path d="M39.6322 586.709L29.2571 592.71L29.9592 593.161L39.5893 587.596L39.6322 586.709Z" fill="#5E99DE"/>
<path d="M108.478 629.938L109.234 629.501L41.5659 586.834L41.523 587.722L108.478 629.938Z" fill="#4882DE"/>
<path d="M30.5716 593.489L40.7225 587.573L41.3964 588.074L31.2455 593.99L30.5716 593.489Z" fill="#87E3FF"/>
<path d="M31.7688 594.27L31.3619 593.984L41.4728 588.075L41.3878 588.647L31.7688 594.27Z" fill="#5E99DE"/>
<path d="M32.7726 594.811L42.9337 588.886L43.6076 589.386L33.4556 595.312L32.7726 594.811Z" fill="#87E3FF"/>
<path d="M33.9706 595.593L33.5729 595.307L43.684 589.387L43.599 589.96L33.9706 595.593Z" fill="#5E99DE"/>
<path d="M34.9821 596.134L45.1446 590.208L45.8203 590.699L35.6577 596.625L34.9821 596.134Z" fill="#87E3FF"/>
<path d="M36.1716 596.915L35.7756 596.619L45.8951 590.699L45.8085 591.282L36.1716 596.915Z" fill="#5E99DE"/>
<path d="M37.1846 597.446L47.3557 591.52L48.0296 592.021L37.8586 597.947L37.1846 597.446Z" fill="#87E3FF"/>
<path d="M38.3728 598.227L37.9749 597.941L48.106 592.021L48.0211 592.594L38.3728 598.227Z" fill="#5E99DE"/>
<path d="M39.3857 598.768L49.5667 592.842L50.2424 593.333L40.0597 599.269L39.3857 598.768Z" fill="#87E3FF"/>
<path d="M40.5829 599.55L40.176 599.264L50.3163 593.334L50.2206 593.916L40.5829 599.55Z" fill="#5E99DE"/>
<path d="M41.5951 600.091L51.7687 594.155L52.4518 594.655L42.2708 600.582L41.5951 600.091Z" fill="#87E3FF"/>
<path d="M42.7847 600.872L42.3886 600.576L52.5272 594.656L52.4331 595.229L42.7847 600.872Z" fill="#5E99DE"/>
<path d="M43.7962 601.413L53.9799 595.467L54.6629 595.968L44.4718 601.904L43.7962 601.413Z" fill="#87E3FF"/>
<path d="M44.9858 602.194L44.5897 601.898L54.7385 595.968L54.6444 596.541L44.9858 602.194Z" fill="#5E99DE"/>
<path d="M45.9988 602.725L56.1899 596.789L56.8655 597.28L46.6727 603.226L45.9988 602.725Z" fill="#87E3FF"/>
<path d="M47.1958 603.507L46.789 603.221L56.9403 597.28L56.8537 597.863L47.1958 603.507Z" fill="#5E99DE"/>
<path d="M48.2097 604.048L58.4011 598.101L59.075 598.602L48.8835 604.548L48.2097 604.048Z" fill="#87E3FF"/>
<path d="M49.3978 604.829L49 604.543L59.1514 598.603L59.0664 599.175L49.3978 604.829Z" fill="#5E99DE"/>
<path d="M50.4091 605.37L60.6119 599.423L61.2876 599.914L51.0848 605.861L50.4091 605.37Z" fill="#87E3FF"/>
<path d="M51.5987 606.151L51.2026 605.855L61.3624 599.915L61.2758 600.498L51.5987 606.151Z" fill="#5E99DE"/>
<path d="M52.6101 606.692L62.8231 600.736L63.4971 601.237L53.2857 607.183L52.6101 606.692Z" fill="#87E3FF"/>
<path d="M53.8087 607.474L53.4036 607.177L63.5734 601.237L63.4884 601.81L53.8087 607.474Z" fill="#5E99DE"/>
<path d="M54.8228 608.005L65.0341 602.058L65.7097 602.549L55.4967 608.505L54.8228 608.005Z" fill="#87E3FF"/>
<path d="M56.0108 608.786L55.613 608.5L65.7846 602.549L65.6979 603.132L56.0108 608.786Z" fill="#5E99DE"/>
<path d="M57.0238 609.327L67.2453 603.37L67.9209 603.861L57.6977 609.828L57.0238 609.327Z" fill="#87E3FF"/>
<path d="M58.2118 610.108L57.814 609.822L67.9957 603.861L67.9091 604.444L58.2118 610.108Z" fill="#5E99DE"/>
<path d="M59.2233 610.65L69.4563 604.682L70.1303 605.183L59.8989 611.14L59.2233 610.65Z" fill="#87E3FF"/>
<path d="M60.4219 611.431L60.0167 611.135L70.2067 605.184L70.1217 605.757L60.4219 611.431Z" fill="#5E99DE"/>
<path d="M61.426 611.962L71.6673 606.005L72.343 606.495L62.1091 612.462L61.426 611.962Z" fill="#87E3FF"/>
<path d="M62.6241 612.743L62.2263 612.457L72.4179 606.496L72.3313 607.079L62.6241 612.743Z" fill="#5E99DE"/>
<path d="M63.6369 613.284L73.8785 607.317L74.5524 607.818L64.3108 613.785L63.6369 613.284Z" fill="#87E3FF"/>
<path d="M64.825 614.065L64.4272 613.779L74.6288 607.818L74.5439 608.391L64.825 614.065Z" fill="#5E99DE"/>
<path d="M65.8364 614.607L76.0894 608.639L76.7651 609.13L66.5122 615.097L65.8364 614.607Z" fill="#87E3FF"/>
<path d="M67.035 615.387L66.6298 615.091L76.839 609.13L76.7433 609.713L67.035 615.387Z" fill="#5E99DE"/>
<path d="M68.0373 615.929L78.2913 609.951L78.9762 610.442L68.7221 616.42L68.0373 615.929Z" fill="#87E3FF"/>
<path d="M69.2367 616.71L68.8407 616.414L79.05 610.443L78.9543 611.026L69.2367 616.71Z" fill="#5E99DE"/>
<path d="M70.25 617.241L80.5018 611.264L81.1757 611.765L70.9239 617.742L70.25 617.241Z" fill="#87E3FF"/>
<path d="M71.4381 618.022L71.0403 617.736L81.2521 611.765L81.1671 612.338L71.4381 618.022Z" fill="#5E99DE"/>
<path d="M72.451 618.563L82.7127 612.586L83.3884 613.077L73.1249 619.064L72.451 618.563Z" fill="#87E3FF"/>
<path d="M73.6391 619.345L73.2413 619.059L83.4632 613.077L83.3766 613.66L73.6391 619.345Z" fill="#5E99DE"/>
<path d="M74.6504 619.886L84.9237 613.898L85.5977 614.399L75.3261 620.376L74.6504 619.886Z" fill="#87E3FF"/>
<path d="M75.849 620.667L75.4438 620.371L85.6741 614.399L85.5891 614.972L75.849 620.667Z" fill="#5E99DE"/>
<path d="M76.8614 621.208L87.1348 615.22L87.8105 615.711L77.5371 621.699L76.8614 621.208Z" fill="#87E3FF"/>
<path d="M78.051 621.989L77.6549 621.693L87.8854 615.712L87.7987 616.295L78.051 621.989Z" fill="#5E99DE"/>
<path d="M79.064 622.52L89.3459 616.533L90.0215 617.023L79.7379 623.021L79.064 622.52Z" fill="#87E3FF"/>
<path d="M80.2521 623.302L79.8543 623.016L90.0964 617.024L90.0097 617.607L80.2521 623.302Z" fill="#5E99DE"/>
<path d="M81.265 623.843L91.5571 617.845L92.231 618.346L81.9389 624.343L81.265 623.843Z" fill="#87E3FF"/>
<path d="M82.4621 624.624L82.0552 624.338L92.3073 618.346L92.2223 618.919L82.4621 624.624Z" fill="#5E99DE"/>
<path d="M83.4745 625.165L93.7679 619.167L94.4436 619.658L84.1502 625.656L83.4745 625.165Z" fill="#87E3FF"/>
<path d="M84.664 625.946L84.268 625.65L94.5185 619.658L94.4319 620.241L84.664 625.946Z" fill="#5E99DE"/>
<path d="M85.6754 626.487L95.9791 620.479L96.6531 620.98L86.3511 626.978L85.6754 626.487Z" fill="#87E3FF"/>
<path d="M86.8653 627.259L86.4674 626.973L96.7295 620.981L96.6445 621.553L86.8653 627.259Z" fill="#5E99DE"/>
<path d="M87.8782 627.799L98.1901 621.801L98.8658 622.292L88.5522 628.3L87.8782 627.799Z" fill="#87E3FF"/>
<path d="M89.0753 628.581L88.6684 628.295L98.9407 622.293L98.854 622.876L89.0753 628.581Z" fill="#5E99DE"/>
<path d="M90.0875 629.122L100.401 623.114L101.075 623.615L90.7632 629.613L90.0875 629.122Z" fill="#87E3FF"/>
<path d="M91.2772 629.903L90.8811 629.607L101.151 623.615L101.057 624.188L91.2772 629.903Z" fill="#5E99DE"/>
<path d="M92.2886 630.444L102.603 624.426L103.286 624.927L92.9643 630.935L92.2886 630.444Z" fill="#87E3FF"/>
<path d="M93.4782 631.225L93.0821 630.929L103.362 624.927L103.268 625.5L93.4782 631.225Z" fill="#5E99DE"/>
<path d="M94.4913 631.756L104.814 625.748L105.499 626.239L95.1653 632.257L94.4913 631.756Z" fill="#87E3FF"/>
<path d="M95.6885 632.538L95.2816 632.252L105.573 626.24L105.477 626.822L95.6885 632.538Z" fill="#5E99DE"/>
<path d="M96.6922 633.079L107.024 627.06L107.698 627.561L97.3753 633.58L96.6922 633.079Z" fill="#87E3FF"/>
<path d="M97.8903 633.86L97.4925 633.574L107.775 627.562L107.69 628.135L97.8903 633.86Z" fill="#5E99DE"/>
<path d="M98.9017 634.401L109.235 628.383L109.911 628.873L99.5774 634.892L98.9017 634.401Z" fill="#87E3FF"/>
<path d="M100.091 635.182L99.6952 634.886L109.986 628.874L109.899 629.457L100.091 635.182Z" fill="#5E99DE"/>
<path d="M110.323 645.605L108.704 646.646L108.58 647.949L110.198 646.909L110.323 645.605Z" fill="#D3AB89"/>
<path d="M108.395 646.461L108.588 646.631L108.486 647.925L108.293 647.754L108.395 646.461Z" fill="#BA9270"/>
<path d="M110.051 645.431L110.308 645.605L108.583 646.659L108.316 646.485L110.051 645.431Z" fill="#FFFFE5"/>
<path d="M106.686 647.463L105.067 648.503L104.942 649.806L106.561 648.766L106.686 647.463Z" fill="#D3AB89"/>
<path d="M104.758 648.318L104.95 648.488L104.848 649.782L104.656 649.611L104.758 648.318Z" fill="#BA9270"/>
<path d="M106.413 647.288L106.671 647.462L104.945 648.517L104.678 648.343L106.413 647.288Z" fill="#FFFFE5"/>
<path d="M110.474 635.247L108.855 636.287L108.73 637.59L110.349 636.55L110.474 635.247Z" fill="#D3AB89"/>
<path d="M108.546 636.102L108.738 636.272L108.636 637.566L108.444 637.395L108.546 636.102Z" fill="#BA9270"/>
<path d="M110.202 635.072L110.459 635.246L108.733 636.301L108.467 636.126L110.202 635.072Z" fill="#FFFFE5"/>
<path d="M106.837 637.114L105.218 638.144L105.093 639.447L106.713 638.407L106.837 637.114Z" fill="#D3AB89"/>
<path d="M104.908 637.959L105.101 638.13L104.999 639.423L104.806 639.252L104.908 637.959Z" fill="#BA9270"/>
<path d="M106.564 636.939L106.822 637.114L105.096 638.158L104.829 637.984L106.564 636.939Z" fill="#FFFFE5"/>
<path d="M107.157 650.148L107.288 649.959L107.723 634.627L107.592 634.826L107.157 650.148Z" fill="#704000"/>
<path d="M103.437 638.404L101.757 639.449L101.693 640.098L103.372 639.064L103.437 638.404Z" fill="#D3AB89"/>
<path d="M101.475 639.259L101.69 639.43L101.633 640.074L101.418 639.903L101.475 639.259Z" fill="#BA9270"/>
<path d="M103.156 638.23L103.422 638.404L101.687 639.458L101.43 639.284L103.156 638.23Z" fill="#FFFFE5"/>
<path d="M103.258 650.753L101.578 651.798L101.513 652.447L103.192 651.412L103.258 650.753Z" fill="#D3AB89"/>
<path d="M101.296 651.608L101.51 651.779L101.453 652.422L101.239 652.251L101.296 651.608Z" fill="#BA9270"/>
<path d="M102.976 650.579L103.242 650.753L101.507 651.807L101.25 651.633L102.976 650.579Z" fill="#FFFFE5"/>
<path d="M113.109 632.864L111.43 633.909L111.365 634.568L113.044 633.524L113.109 632.864Z" fill="#D3AB89"/>
<path d="M111.148 633.72L111.362 633.891L111.304 634.544L111.09 634.373L111.148 633.72Z" fill="#BA9270"/>
<path d="M112.827 632.69L113.094 632.864L111.359 633.919L111.102 633.744L112.827 632.69Z" fill="#FFFFE5"/>
<path d="M112.929 645.213L111.25 646.258L111.185 646.917L112.864 645.873L112.929 645.213Z" fill="#D3AB89"/>
<path d="M110.968 646.068L111.182 646.239L111.124 646.893L110.91 646.722L110.968 646.068Z" fill="#BA9270"/>
<path d="M112.648 645.039L112.914 645.213L111.179 646.267L110.922 646.093L112.648 645.039Z" fill="#FFFFE5"/>
<path d="M106.258 635.675L106.121 635.924L105.626 651.567L105.763 651.318L106.258 635.675Z" fill="#D3AB89"/>
<path d="M105.774 635.75L105.852 635.921L105.409 651.562L105.331 651.391L105.774 635.75Z" fill="#BA9270"/>
<path d="M105.98 635.5L106.248 635.674L105.844 635.929L105.566 635.755L105.98 635.5Z" fill="#FFFFE5"/>
<path d="M109.849 633.567L109.707 633.816L109.207 649.459L109.349 649.22L109.849 633.567Z" fill="#D3AB89"/>
<path d="M109.355 633.641L109.433 633.812L108.99 649.454L108.912 649.283L109.355 633.641Z" fill="#BA9270"/>
<path d="M109.562 633.392L109.839 633.566L109.425 633.821L109.148 633.647L109.562 633.392Z" fill="#FFFFE5"/>
</svg>
