<svg width="142" height="431" viewBox="0 0 142 431" fill="none" xmlns="http://www.w3.org/2000/svg">
<path d="M47.7913 406.044L47.1311 405.669V409.18L47.7913 409.556V406.044Z" fill="#C9893E"/>
<path d="M47.7911 406.044L49.0216 405.339V408.85L47.7911 409.556V406.044Z" fill="#A35E0F"/>
<path d="M47.7913 406.044L47.1311 405.669L48.3765 404.964L49.0217 405.339L47.7913 406.044Z" fill="#FFB35C"/>
<path d="M44.6553 407.845L43.9951 407.47V410.966L44.6553 411.356V407.845Z" fill="#C9893E"/>
<path d="M44.6555 407.845L45.8859 407.14V410.651L44.6555 411.356V407.845Z" fill="#A35E0F"/>
<path d="M44.6553 407.845L43.9951 407.47L45.2405 406.765L45.8858 407.14L44.6553 407.845Z" fill="#FFB35C"/>
<path d="M49.8771 408.115C50.3573 405.669 52.1129 403.614 53.8084 403.493C54.1535 403.478 54.4536 403.553 54.7387 403.674L54.7537 403.659L55.534 404.124L51.9778 412.632L51.0025 412.076C50.9875 412.061 50.9725 412.061 50.9575 412.046L50.9275 412.031C49.9671 411.416 49.517 409.916 49.8771 408.115Z" fill="#383838"/>
<path d="M54.4687 403.899C52.7732 404.004 51.0176 406.074 50.5374 408.52C50.0573 410.966 51.0476 412.857 52.7432 412.752C54.4387 412.647 56.1943 410.576 56.6745 408.13C57.1547 405.684 56.1643 403.794 54.4687 403.899Z" fill="#666666"/>
<path d="M55.1592 410.291C56.2245 408.655 56.5246 406.464 55.8494 405.384C55.7144 405.159 55.5343 405.024 55.3543 404.934V404.919L54.7841 404.709L51.9181 411.521L52.6233 411.806C52.6383 411.806 52.6383 411.821 52.6533 411.821H52.6683C53.4036 412.046 54.3789 411.491 55.1592 410.291Z" fill="#3B3B3B"/>
<path d="M55.354 405.204C56.0293 406.284 55.7142 408.475 54.6638 410.111C53.5985 411.746 52.188 412.181 51.5127 411.101C50.8375 410.021 51.1526 407.83 52.203 406.194C53.2683 404.559 54.6788 404.124 55.354 405.204Z" fill="#4D4D4D"/>
<path d="M35.6072 412.106V413.592L37.2277 414.507L42.7196 410.741L44.2951 413.142L45.9157 414.072L46.741 412.001L46.3508 412.241L44.7603 409.856L44.6552 408.835L49.0367 406.284L49.3668 405.474L55.9241 402.188L54.3185 401.273L49.1718 403.313L41.5942 407.725L35.6072 412.106Z" fill="#4A4843"/>
<path d="M37.8879 415.032C38.3681 412.587 40.1237 410.531 41.8193 410.411C42.1644 410.396 42.4645 410.471 42.7496 410.591L42.7646 410.576L43.5449 411.041L39.9887 419.549L39.0133 418.994C38.9983 418.979 38.9833 418.979 38.9683 418.964L38.9383 418.949C37.993 418.334 37.5428 416.833 37.8879 415.032Z" fill="#383838"/>
<path d="M42.4946 410.816C40.799 410.921 39.0435 412.992 38.5633 415.438C38.0831 417.883 39.0735 419.774 40.769 419.669C42.4646 419.564 44.2202 417.493 44.7004 415.047C45.1655 412.602 44.1902 410.711 42.4946 410.816Z" fill="#666666"/>
<path d="M43.1847 417.208C44.2501 415.573 44.5502 413.382 43.8749 412.301C43.7399 412.076 43.5598 411.941 43.3798 411.851V411.836L42.8096 411.626L39.9436 418.439L40.6488 418.724C40.6638 418.724 40.6638 418.739 40.6788 418.739H40.6939C41.4291 418.964 42.4044 418.409 43.1847 417.208Z" fill="#3B3B3B"/>
<path d="M43.3799 412.121C44.0551 413.202 43.74 415.392 42.6897 417.028C41.6393 418.664 40.2138 419.099 39.5386 418.018C38.8634 416.938 39.1785 414.747 40.2289 413.112C41.2942 411.491 42.7047 411.041 43.3799 412.121Z" fill="#4D4D4D"/>
<path d="M40.4388 415.032C40.5589 414.417 40.994 413.907 41.4292 413.877C41.5192 413.877 41.5942 413.892 41.6542 413.922L42.0744 414.132L41.1891 416.263L40.7239 416.023H40.7089C40.4688 415.858 40.3488 415.482 40.4388 415.032Z" fill="#3B3B3B"/>
<path d="M41.8494 414.087C41.4293 414.117 40.9791 414.627 40.8591 415.242C40.739 415.858 40.9941 416.323 41.4143 416.308C41.8344 416.278 42.2846 415.768 42.4046 415.152C42.5246 414.537 42.2696 414.057 41.8494 414.087Z" fill="#666666"/>
<path d="M37.2279 413.037V414.522L42.7198 410.756L43.395 410.291L45.9159 414.087L49.7121 411.836L50.9876 405.834L55.9242 403.719V402.188L50.7925 404.244L43.1999 408.64L37.2279 413.037ZM44.6554 408.835L49.0369 406.284L49.427 406.059L49.5471 407.065L48.7368 410.831L46.7411 411.986L46.351 412.226L44.7605 409.841L44.6554 408.835Z" fill="#7C7971"/>
<path d="M48.2114 410.531L49.0217 406.765L48.9617 406.329L49.4268 406.074L49.5469 407.08L48.7366 410.846L46.3508 412.241L46.0657 411.791L48.2114 410.531Z" fill="#4A4843"/>
<path d="M52.428 408.115C52.548 407.5 52.9832 406.99 53.4183 406.96C53.5083 406.96 53.5834 406.975 53.6434 407.005L54.0635 407.215L53.1782 409.346L52.7131 409.105H52.6981C52.443 408.94 52.338 408.565 52.428 408.115Z" fill="#3B3B3B"/>
<path d="M53.8234 407.17C53.4033 407.2 52.9531 407.71 52.8331 408.325C52.713 408.94 52.9681 409.406 53.3883 409.391C53.8084 409.361 54.2586 408.85 54.3786 408.235C54.4986 407.62 54.2436 407.14 53.8234 407.17Z" fill="#666666"/>
<path d="M109.072 370.737L108.412 370.362V373.858L109.072 374.249V370.737Z" fill="#C9893E"/>
<path d="M109.072 370.737L110.303 370.032V373.543L109.072 374.249V370.737Z" fill="#A35E0F"/>
<path d="M109.072 370.737L108.412 370.362L109.643 369.657L110.303 370.032L109.072 370.737Z" fill="#FFB35C"/>
<path d="M105.936 372.538L105.276 372.148V375.659L105.936 376.034V372.538Z" fill="#C9893E"/>
<path d="M105.936 372.538L107.167 371.833V375.329L105.936 376.034V372.538Z" fill="#A35E0F"/>
<path d="M105.936 372.538L105.276 372.148L106.507 371.458L107.167 371.833L105.936 372.538Z" fill="#FFB35C"/>
<path d="M111.143 372.793C111.623 370.347 113.379 368.292 115.074 368.172C115.419 368.157 115.719 368.232 116.004 368.352L116.019 368.337L116.8 368.802L113.244 377.31L112.268 376.754C112.253 376.739 112.238 376.739 112.223 376.724L112.193 376.709C111.248 376.109 110.798 374.609 111.143 372.793Z" fill="#383838"/>
<path d="M115.749 368.592C114.054 368.697 112.298 370.767 111.818 373.213C111.338 375.659 112.328 377.55 114.024 377.445C115.719 377.34 117.475 375.269 117.955 372.823C118.42 370.377 117.445 368.487 115.749 368.592Z" fill="#666666"/>
<path d="M116.439 374.969C117.505 373.333 117.805 371.143 117.13 370.062C116.995 369.837 116.815 369.702 116.635 369.612V369.597L116.064 369.387L113.198 376.199L113.904 376.484C113.919 376.484 113.919 376.499 113.934 376.499H113.949C114.684 376.724 115.659 376.184 116.439 374.969Z" fill="#3B3B3B"/>
<path d="M116.635 369.882C117.31 370.962 116.995 373.153 115.944 374.789C114.879 376.424 113.469 376.859 112.793 375.779C112.118 374.699 112.433 372.508 113.484 370.872C114.549 369.252 115.959 368.802 116.635 369.882Z" fill="#4D4D4D"/>
<path d="M96.8732 376.799V378.27L98.4937 379.2L103.986 375.434L105.576 377.835L107.197 378.765L108.022 376.694L107.632 376.935L106.041 374.549L105.921 373.528L110.318 370.978L110.648 370.152L117.205 366.881L115.6 365.966L110.453 368.007L102.875 372.403L96.8732 376.799Z" fill="#4A4843"/>
<path d="M99.1689 379.726C99.649 377.28 101.405 375.224 103.1 375.104C103.445 375.089 103.745 375.164 104.031 375.284V375.269L104.811 375.734L101.255 384.242L100.279 383.687C100.264 383.672 100.249 383.672 100.234 383.657L100.204 383.642C99.2739 383.027 98.8238 381.526 99.1689 379.726Z" fill="#383838"/>
<path d="M103.761 375.509C102.065 375.614 100.31 377.685 99.8295 380.131C99.3494 382.576 100.34 384.467 102.035 384.362C103.731 384.257 105.486 382.186 105.967 379.74C106.447 377.295 105.456 375.404 103.761 375.509Z" fill="#666666"/>
<path d="M104.465 381.886C105.531 380.251 105.831 378.06 105.156 376.98C105.021 376.755 104.84 376.62 104.66 376.53V376.515L104.09 376.304L101.224 383.117L101.929 383.402C101.944 383.402 101.944 383.417 101.959 383.417H101.974C102.71 383.657 103.685 383.102 104.465 381.886Z" fill="#3B3B3B"/>
<path d="M104.661 376.8C105.336 377.88 105.021 380.071 103.97 381.706C102.905 383.342 101.494 383.777 100.819 382.697C100.144 381.616 100.459 379.425 101.509 377.79C102.575 376.169 103.985 375.734 104.661 376.8Z" fill="#4D4D4D"/>
<path d="M101.72 379.725C101.84 379.11 102.275 378.6 102.71 378.57C102.8 378.57 102.875 378.585 102.935 378.615L103.355 378.825L102.47 380.956L102.005 380.716H101.99C101.75 380.551 101.63 380.176 101.72 379.725Z" fill="#3B3B3B"/>
<path d="M103.115 378.78C102.695 378.81 102.245 379.32 102.125 379.936C102.005 380.551 102.26 381.016 102.68 381.001C103.1 380.971 103.55 380.461 103.67 379.846C103.79 379.23 103.55 378.75 103.115 378.78Z" fill="#666666"/>
<path d="M98.4939 377.73V379.215L103.986 375.449L104.661 374.984L107.182 378.78L110.978 376.544L112.254 370.542L117.19 368.427V366.896L112.058 368.952L104.466 373.348L98.4939 377.73ZM105.921 373.528L110.303 370.977L110.693 370.752L110.813 371.758L110.003 375.524L108.007 376.679L107.617 376.92L106.026 374.534L105.921 373.528Z" fill="#7C7971"/>
<path d="M109.493 375.224L110.288 371.458L110.243 371.023L110.708 370.752L110.813 371.758L110.018 375.524L107.632 376.935L107.332 376.484L109.493 375.224Z" fill="#4A4843"/>
<path d="M113.694 372.808C113.814 372.193 114.249 371.683 114.684 371.653C114.774 371.653 114.849 371.668 114.909 371.698L115.33 371.908L114.444 374.039L113.979 373.798H113.964C113.724 373.633 113.604 373.258 113.694 372.808Z" fill="#3B3B3B"/>
<path d="M115.104 371.863C114.684 371.893 114.234 372.403 114.114 373.018C113.994 373.633 114.249 374.099 114.669 374.084C115.089 374.054 115.539 373.543 115.659 372.928C115.78 372.313 115.524 371.833 115.104 371.863Z" fill="#666666"/>
<path d="M94.1123 378.45V383.297L58.2351 404.004V399.172L94.1123 378.45Z" fill="#252B30"/>
<path d="M2.62585 408.835L22.0574 419.339V425.101L2.62585 413.877V408.835Z" fill="#484E54"/>
<path d="M34.3618 412.827L22.0576 420.059V425.101L32.5762 419.099L34.3618 412.827Z" fill="#252B30"/>
<path d="M134.386 355.207L116.995 364.795L120.731 367.886L134.386 359.964V355.207Z" fill="#252B30"/>
<path d="M114.939 340.187L134.386 351.411L22.0574 416.263L2.62585 405.039L114.939 340.187Z" fill="#8F8B8B"/>
<path d="M119.426 334.215V343.683L120.101 344.073V334.62L119.426 334.215Z" fill="#737373"/>
<path d="M120.101 333.945V344.073L120.686 343.743V333.615L120.101 333.945Z" fill="#454545"/>
<path d="M115.599 331.619V341.478L116.185 341.147V331.289L115.599 331.619Z" fill="#454545"/>
<path d="M114.924 331.019V341.072L115.6 341.477V331.409L114.924 331.019Z" fill="#737373"/>
<path d="M120.687 333.615L115.525 330.689L114.94 331.019L120.102 333.945L120.687 333.615Z" fill="#979797"/>
<path d="M120.101 333.945L114.924 331.019V331.694L120.101 334.62V333.945Z" fill="#737373"/>
<path d="M133.11 342.183V351.651L133.785 352.041V342.588L133.11 342.183Z" fill="#737373"/>
<path d="M133.785 341.913V352.041L134.37 351.711V341.583L133.785 341.913Z" fill="#454545"/>
<path d="M129.284 339.587V349.445L129.869 349.115V339.257L129.284 339.587Z" fill="#454545"/>
<path d="M128.609 338.987L128.594 349.04L129.284 349.445V339.377L128.609 338.987Z" fill="#737373"/>
<path d="M134.371 341.582L129.209 338.656L128.624 338.987L133.785 341.913L134.371 341.582Z" fill="#979797"/>
<path d="M133.785 341.913L128.609 338.987V339.662L133.785 342.588V341.913Z" fill="#737373"/>
<path d="M29.695 380.821V390.064L29.0348 390.454V381.211L29.695 380.821Z" fill="#8A8A8A"/>
<path d="M29.0348 380.551V390.454L28.4646 390.139L28.4496 380.236L29.0348 380.551Z" fill="#B8B8B8"/>
<path d="M33.4314 378.285V387.918L32.8612 387.588V377.97L33.4314 378.285Z" fill="#B8B8B8"/>
<path d="M34.0917 377.7V387.528L33.4315 387.918V378.09L34.0917 377.7Z" fill="#8A8A8A"/>
<path d="M28.4497 380.236L33.5064 377.385L34.0766 377.7L29.0349 380.551L28.4497 380.236Z" fill="#DCDCDC"/>
<path d="M29.0348 380.551L34.0915 377.7V378.36L29.0348 381.211V380.551Z" fill="#8A8A8A"/>
<path d="M25.3886 383.312V392.555L24.7284 392.945V383.702L25.3886 383.312Z" fill="#8A8A8A"/>
<path d="M24.7285 383.042V392.945L24.1583 392.615L24.1433 382.727L24.7285 383.042Z" fill="#B8B8B8"/>
<path d="M29.125 380.776V390.394L28.5548 390.079V380.446L29.125 380.776Z" fill="#B8B8B8"/>
<path d="M29.7855 380.191V390.004L29.1252 390.394V380.581L29.7855 380.191Z" fill="#8A8A8A"/>
<path d="M24.1433 382.727L29.2 379.861L29.7702 380.191L24.7285 383.042L24.1433 382.727Z" fill="#DCDCDC"/>
<path d="M24.7284 383.042L29.7851 380.191V380.836L24.7284 383.702V383.042Z" fill="#8A8A8A"/>
<path d="M21.0821 385.803V395.031L20.4219 395.421V386.193L21.0821 385.803Z" fill="#8A8A8A"/>
<path d="M20.422 385.533V395.421L19.8518 395.106L19.8368 385.202L20.422 385.533Z" fill="#B8B8B8"/>
<path d="M24.8185 383.252V392.885L24.2483 392.555V382.937L24.8185 383.252Z" fill="#B8B8B8"/>
<path d="M25.4789 382.667V392.495L24.8187 392.885V383.057L25.4789 382.667Z" fill="#8A8A8A"/>
<path d="M19.8367 385.202L24.8784 382.351L25.4636 382.682L20.4219 385.533L19.8367 385.202Z" fill="#DCDCDC"/>
<path d="M20.4219 385.532L25.4786 382.667V383.327L20.4219 386.193V385.532Z" fill="#8A8A8A"/>
<path d="M16.7758 388.278V397.522L16.1156 397.912V388.669L16.7758 388.278Z" fill="#8A8A8A"/>
<path d="M16.1156 388.008V397.912L15.5454 397.597L15.5304 387.693L16.1156 388.008Z" fill="#B8B8B8"/>
<path d="M20.5122 385.743V395.376L19.942 395.046V385.412L20.5122 385.743Z" fill="#B8B8B8"/>
<path d="M21.1727 385.157V394.986L20.5125 395.376V385.547L21.1727 385.157Z" fill="#8A8A8A"/>
<path d="M15.5305 387.693L20.5722 384.842L21.1574 385.157L16.1157 388.008L15.5305 387.693Z" fill="#DCDCDC"/>
<path d="M16.1156 388.008L21.1723 385.157V385.818L16.1156 388.669V388.008Z" fill="#8A8A8A"/>
<path d="M12.4693 390.769V400.012L11.8091 400.403L11.7941 391.159L12.4693 390.769Z" fill="#8A8A8A"/>
<path d="M11.7942 390.499L11.8092 400.403L11.239 400.072L11.224 390.169L11.7942 390.499Z" fill="#B8B8B8"/>
<path d="M16.2053 388.233V397.852L15.6351 397.537L15.6201 387.903L16.2053 388.233Z" fill="#B8B8B8"/>
<path d="M16.8658 387.633V397.462L16.2056 397.852V388.023L16.8658 387.633Z" fill="#8A8A8A"/>
<path d="M11.224 390.169L16.2657 387.318L16.8509 387.648L11.8092 390.499L11.224 390.169Z" fill="#DCDCDC"/>
<path d="M11.8091 390.499L16.8658 387.633V388.294L11.7941 391.159L11.8091 390.499Z" fill="#8A8A8A"/>
<path d="M8.14789 393.245L8.1629 402.488L7.50267 402.878L7.48767 393.65L8.14789 393.245Z" fill="#8A8A8A"/>
<path d="M7.4878 392.99L7.5028 402.878L6.93261 402.563L6.9176 392.66L7.4878 392.99Z" fill="#B8B8B8"/>
<path d="M11.899 390.709V400.342L11.3288 400.012L11.3138 390.394L11.899 390.709Z" fill="#B8B8B8"/>
<path d="M12.5595 390.124V399.952L11.8993 400.342V390.514L12.5595 390.124Z" fill="#8A8A8A"/>
<path d="M6.91772 392.66L11.9594 389.809L12.5446 390.124L7.50292 392.99L6.91772 392.66Z" fill="#DCDCDC"/>
<path d="M7.50267 392.99L12.5594 390.124V390.784L7.48767 393.65L7.50267 392.99Z" fill="#8A8A8A"/>
<path d="M3.84101 395.736L3.85602 404.979L3.19579 405.369L3.18079 396.126L3.84101 395.736Z" fill="#8A8A8A"/>
<path d="M3.18091 395.466L3.19592 405.369L2.62572 405.039L2.61072 395.151L3.18091 395.466Z" fill="#B8B8B8"/>
<path d="M7.5924 393.2V402.833L7.0222 402.503L7.0072 392.87L7.5924 393.2Z" fill="#B8B8B8"/>
<path d="M8.25263 392.615V402.443L7.59241 402.833V393.005L8.25263 392.615Z" fill="#8A8A8A"/>
<path d="M2.61096 395.151L7.65267 392.285L8.23787 392.615L3.19616 395.466L2.61096 395.151Z" fill="#DCDCDC"/>
<path d="M3.19579 395.466L8.2525 392.615V393.275L3.18079 396.126L3.19579 395.466Z" fill="#8A8A8A"/>
<path d="M58.2349 399.172L22.0576 420.059L58.2349 399.172Z" fill="#2E3133"/>
<path d="M134.386 351.411V355.207L22.0576 420.059V416.263L134.386 351.411Z" fill="#666666"/>
<path d="M52.9531 364.42V393.995L77.5014 379.83L119.786 355.417V325.827L77.5014 350.24L52.9531 364.42Z" fill="#510800"/>
<path d="M119.786 335.986V340.592H119.771L77.4866 365.02V360.414L119.771 335.986H119.786Z" fill="#944E15"/>
<path d="M105.621 350.181V352.311L111.278 349.025V346.894L105.621 350.181Z" fill="#5E5E5E"/>
<path d="M110.873 348.8V347.585L106.026 350.406V351.621L110.873 348.8Z" fill="#262426"/>
<path d="M110.603 348.635V347.72L110.873 347.585V348.8L106.026 351.621V351.291L110.603 348.635Z" fill="#8D9DA8"/>
<path d="M110.603 348.635L110.873 348.8L106.026 351.621V351.291L110.603 348.635Z" fill="#9CA7AD"/>
<path d="M105.621 351.861V354.007L111.278 350.721V348.575L105.621 351.861Z" fill="#5E5E5E"/>
<path d="M110.873 350.481V349.28L106.026 352.101V353.302L110.873 350.481Z" fill="#262426"/>
<path d="M110.603 350.331V349.4L110.873 349.28V350.481L106.026 353.302V352.987L110.603 350.331Z" fill="#8D9DA8"/>
<path d="M110.603 350.331L110.873 350.481L106.026 353.302V352.986L110.603 350.331Z" fill="#9CA7AD"/>
<path d="M105.621 353.557V355.702L111.278 352.401V350.271L105.621 353.557Z" fill="#5E5E5E"/>
<path d="M110.873 352.176V350.961L106.026 353.782V354.997L110.873 352.176Z" fill="#262426"/>
<path d="M110.603 352.011V351.096L110.873 350.961V352.176L106.026 354.997V354.667L110.603 352.011Z" fill="#8D9DA8"/>
<path d="M110.603 352.011L110.873 352.176L106.026 354.997V354.667L110.603 352.011Z" fill="#9CA7AD"/>
<path d="M105.621 355.237V357.383L111.278 354.097V351.951L105.621 355.237Z" fill="#5E5E5E"/>
<path d="M110.873 353.857V352.656L106.026 355.477V356.678L110.873 353.857Z" fill="#262426"/>
<path d="M110.603 353.707V352.776L110.873 352.656V353.857L106.026 356.678V356.363L110.603 353.707Z" fill="#8D9DA8"/>
<path d="M110.603 353.707L110.873 353.857L106.026 356.678V356.363L110.603 353.707Z" fill="#9CA7AD"/>
<path d="M105.621 356.933V359.079L111.278 355.792V353.647L105.621 356.933Z" fill="#5E5E5E"/>
<path d="M110.873 355.552V354.352L106.026 357.173V358.373L110.873 355.552Z" fill="#262426"/>
<path d="M110.603 355.387V354.472L110.873 354.352V355.552L106.026 358.373V358.043L110.603 355.387Z" fill="#8D9DA8"/>
<path d="M110.603 355.387L110.873 355.552L106.026 358.373V358.043L110.603 355.387Z" fill="#9CA7AD"/>
<path d="M110.873 347.104V349.25L116.545 345.964V343.818L110.873 347.104Z" fill="#5E5E5E"/>
<path d="M116.14 345.724V344.524L111.278 347.345V348.545L116.14 345.724Z" fill="#262426"/>
<path d="M115.855 345.559V344.644L116.14 344.524V345.724L111.278 348.545V348.23L115.855 345.559Z" fill="#8D9DA8"/>
<path d="M115.855 345.559L116.14 345.724L111.278 348.545V348.23L115.855 345.559Z" fill="#9CA7AD"/>
<path d="M110.873 348.8V350.931L116.545 347.645V345.514L110.873 348.8Z" fill="#5E5E5E"/>
<path d="M116.14 347.42V346.204L111.278 349.025V350.24L116.14 347.42Z" fill="#262426"/>
<path d="M115.855 347.254V346.339L116.14 346.204V347.42L111.278 350.24V349.91L115.855 347.254Z" fill="#8D9DA8"/>
<path d="M115.855 347.255L116.14 347.42L111.278 350.241V349.91L115.855 347.255Z" fill="#9CA7AD"/>
<path d="M110.873 350.481V352.626L116.545 349.34V347.194L110.873 350.481Z" fill="#5E5E5E"/>
<path d="M116.14 349.1V347.9L111.278 350.721V351.921L116.14 349.1Z" fill="#262426"/>
<path d="M115.855 348.95V348.02L116.14 347.9V349.1L111.278 351.921V351.606L115.855 348.95Z" fill="#8D9DA8"/>
<path d="M115.855 348.95L116.14 349.1L111.278 351.921V351.606L115.855 348.95Z" fill="#9CA7AD"/>
<path d="M110.873 352.176V354.322L116.545 351.021V348.89L110.873 352.176Z" fill="#5E5E5E"/>
<path d="M116.14 350.796V349.58L111.278 352.401V353.617L116.14 350.796Z" fill="#262426"/>
<path d="M115.855 350.631V349.715L116.14 349.58V350.796L111.278 353.617V353.287L115.855 350.631Z" fill="#8D9DA8"/>
<path d="M115.855 350.631L116.14 350.796L111.278 353.617V353.287L115.855 350.631Z" fill="#9CA7AD"/>
<path d="M110.873 353.857V356.002L116.545 352.716V350.571L110.873 353.857Z" fill="#5E5E5E"/>
<path d="M116.14 352.476V351.276L111.278 354.097V355.297L116.14 352.476Z" fill="#262426"/>
<path d="M115.855 352.326V351.396L116.14 351.276V352.476L111.278 355.297V354.982L115.855 352.326Z" fill="#8D9DA8"/>
<path d="M115.855 352.326L116.14 352.476L111.278 355.297V354.982L115.855 352.326Z" fill="#9CA7AD"/>
<path d="M84.0735 351.456V373.603C84.0735 374.039 84.5386 374.309 84.9138 374.099L87.5246 372.598C87.9598 372.343 88.2449 371.878 88.2449 371.368V349.205C88.2449 348.77 87.7797 348.5 87.4046 348.71L84.7937 350.21C84.3436 350.466 84.0735 350.946 84.0735 351.456ZM84.2685 351.456C84.2685 351.021 84.5086 350.601 84.8838 350.376L87.4946 348.875C87.5547 348.845 87.6147 348.83 87.6747 348.83C87.8548 348.83 88.0498 348.98 88.0498 349.205V371.353C88.0498 371.788 87.8097 372.208 87.4346 372.433L84.8237 373.934C84.7637 373.964 84.7037 373.979 84.6437 373.979C84.4636 373.979 84.2685 373.828 84.2685 373.603V351.456Z" fill="#670900"/>
<path d="M77.9363 355.027V377.175C77.9363 377.61 78.4014 377.88 78.7766 377.67L81.3875 376.169C81.8226 375.914 82.1077 375.449 82.1077 374.939V352.776C82.1077 352.341 81.6425 352.071 81.2674 352.281L78.6565 353.782C78.2064 354.037 77.9363 354.517 77.9363 355.027ZM78.1163 355.027C78.1163 354.592 78.3564 354.172 78.7315 353.947L81.3424 352.446C81.4025 352.416 81.4625 352.401 81.5225 352.401C81.7026 352.401 81.8976 352.551 81.8976 352.776V374.924C81.8976 375.359 81.6575 375.779 81.2824 376.004L78.6715 377.505C78.6115 377.535 78.5515 377.55 78.4915 377.55C78.3114 377.55 78.1163 377.4 78.1163 377.175V355.027Z" fill="#670900"/>
<path d="M129.974 344.703V353.947L129.314 354.337V345.094L129.974 344.703Z" fill="#8A8A8A"/>
<path d="M129.314 344.434V354.337L128.744 354.022V344.118L129.314 344.434Z" fill="#B8B8B8"/>
<path d="M133.71 342.168L133.725 351.801L133.14 351.471V341.838L133.71 342.168Z" fill="#B8B8B8"/>
<path d="M134.371 341.583L134.386 351.411L133.725 351.801L133.71 341.973L134.371 341.583Z" fill="#8A8A8A"/>
<path d="M128.744 344.118L133.785 341.267L134.356 341.582L129.314 344.433L128.744 344.118Z" fill="#DCDCDC"/>
<path d="M129.314 344.433L134.371 341.583V342.243L129.314 345.094V344.433Z" fill="#8A8A8A"/>
<path d="M125.652 347.194L125.667 356.438L125.007 356.828L124.992 347.585L125.652 347.194Z" fill="#8A8A8A"/>
<path d="M124.992 346.939L125.007 356.828L124.422 356.513V346.609L124.992 346.939Z" fill="#B8B8B8"/>
<path d="M129.389 344.659L129.404 354.292L128.834 353.962L128.819 344.344L129.389 344.659Z" fill="#B8B8B8"/>
<path d="M130.049 344.073L130.064 353.902L129.404 354.292L129.389 344.463L130.049 344.073Z" fill="#8A8A8A"/>
<path d="M124.422 346.609L129.464 343.758L130.034 344.073L124.992 346.939L124.422 346.609Z" fill="#DCDCDC"/>
<path d="M124.992 346.939L130.049 344.073V344.734L124.992 347.585V346.939Z" fill="#8A8A8A"/>
<path d="M121.331 349.7L121.346 358.928L120.686 359.318L120.671 350.09L121.331 349.7Z" fill="#8A8A8A"/>
<path d="M120.671 349.43L120.686 359.319L120.116 359.003L120.101 349.1L120.671 349.43Z" fill="#B8B8B8"/>
<path d="M125.083 347.149V356.783L124.512 356.452L124.497 346.834L125.083 347.149Z" fill="#B8B8B8"/>
<path d="M125.743 346.564V356.393L125.083 356.783V346.954L125.743 346.564Z" fill="#8A8A8A"/>
<path d="M120.101 349.1L125.143 346.249L125.728 346.564L120.671 349.43L120.101 349.1Z" fill="#DCDCDC"/>
<path d="M120.671 349.43L125.743 346.564L125.728 347.224L120.671 350.09V349.43Z" fill="#8A8A8A"/>
<path d="M117.024 352.191V361.434L116.364 361.824V352.581L117.024 352.191Z" fill="#8A8A8A"/>
<path d="M116.364 351.921V361.824L115.794 361.494L115.779 351.591L116.364 351.921Z" fill="#B8B8B8"/>
<path d="M120.761 349.64V359.273L120.19 358.958V349.325L120.761 349.64Z" fill="#B8B8B8"/>
<path d="M121.421 349.055V358.883L120.761 359.273V349.445L121.421 349.055Z" fill="#8A8A8A"/>
<path d="M115.779 351.591L120.821 348.74L121.406 349.07L116.364 351.921L115.779 351.591Z" fill="#DCDCDC"/>
<path d="M116.364 351.921L121.421 349.055V349.715L116.364 352.581V351.921Z" fill="#8A8A8A"/>
<path d="M112.703 354.682V363.925L112.043 364.315V355.072L112.703 354.682Z" fill="#8A8A8A"/>
<path d="M112.043 354.412V364.315L111.473 363.985L111.458 354.082L112.043 354.412Z" fill="#B8B8B8"/>
<path d="M116.439 352.146V361.764L115.869 361.449V351.816L116.439 352.146Z" fill="#B8B8B8"/>
<path d="M117.1 351.546V361.374L116.439 361.764V351.936L117.1 351.546Z" fill="#8A8A8A"/>
<path d="M111.458 354.082L116.515 351.231L117.085 351.561L112.043 354.412L111.458 354.082Z" fill="#DCDCDC"/>
<path d="M112.043 354.412L117.1 351.546V352.206L112.043 355.072V354.412Z" fill="#8A8A8A"/>
<path d="M108.382 357.173V366.416L107.721 366.806V357.563L108.382 357.173Z" fill="#8A8A8A"/>
<path d="M107.721 356.903V366.806L107.151 366.476V356.588L107.721 356.903Z" fill="#B8B8B8"/>
<path d="M112.118 354.637L112.133 364.255L111.547 363.94V354.307L112.118 354.637Z" fill="#B8B8B8"/>
<path d="M112.778 354.052L112.793 363.865L112.133 364.255L112.118 354.442L112.778 354.052Z" fill="#8A8A8A"/>
<path d="M107.151 356.588L112.193 353.722L112.763 354.052L107.721 356.903L107.151 356.588Z" fill="#DCDCDC"/>
<path d="M107.721 356.903L112.778 354.052V354.697L107.721 357.563V356.903Z" fill="#8A8A8A"/>
<path d="M104.06 359.664L104.075 368.907L103.4 369.297V360.054L104.06 359.664Z" fill="#8A8A8A"/>
<path d="M103.4 359.393V369.297L102.83 368.967V359.078L103.4 359.393Z" fill="#B8B8B8"/>
<path d="M107.796 357.128L107.811 366.761L107.226 366.431V356.798L107.796 357.128Z" fill="#B8B8B8"/>
<path d="M108.457 356.542L108.472 366.371L107.812 366.761L107.797 356.933L108.457 356.542Z" fill="#8A8A8A"/>
<path d="M102.83 359.078L107.872 356.212L108.442 356.543L103.4 359.393L102.83 359.078Z" fill="#DCDCDC"/>
<path d="M103.4 359.393L108.456 356.542V357.203L103.4 360.054V359.393Z" fill="#8A8A8A"/>
<path d="M99.7383 362.154L99.7533 371.398L99.0931 371.788L99.0781 362.545L99.7383 362.154Z" fill="#8A8A8A"/>
<path d="M99.0781 361.884L99.0931 371.788L98.5079 371.473V361.569L99.0781 361.884Z" fill="#B8B8B8"/>
<path d="M103.475 359.619L103.49 369.252L102.92 368.922L102.905 359.288L103.475 359.619Z" fill="#B8B8B8"/>
<path d="M104.135 359.033L104.15 368.862L103.49 369.252L103.475 359.424L104.135 359.033Z" fill="#8A8A8A"/>
<path d="M98.5081 361.569L103.55 358.718L104.12 359.033L99.0783 361.884L98.5081 361.569Z" fill="#DCDCDC"/>
<path d="M99.0781 361.884L104.135 359.033V359.694L99.0781 362.545V361.884Z" fill="#8A8A8A"/>
<path d="M95.4171 364.645L95.4321 373.888L94.7718 374.279L94.7568 365.035L95.4171 364.645Z" fill="#8A8A8A"/>
<path d="M94.7568 364.39L94.7718 374.279L94.2017 373.963L94.1866 364.06L94.7568 364.39Z" fill="#B8B8B8"/>
<path d="M99.1684 362.109V371.743L98.5983 371.413L98.5833 361.794L99.1684 362.109Z" fill="#B8B8B8"/>
<path d="M99.8289 361.524V371.352L99.1687 371.743V361.914L99.8289 361.524Z" fill="#8A8A8A"/>
<path d="M94.1868 364.06L99.2285 361.209L99.8137 361.524L94.757 364.39L94.1868 364.06Z" fill="#DCDCDC"/>
<path d="M94.7568 364.39L99.8286 361.524L99.8136 362.184L94.7568 365.035V364.39Z" fill="#8A8A8A"/>
<path d="M91.1108 367.151V376.379L90.4506 376.769V367.541L91.1108 367.151Z" fill="#8A8A8A"/>
<path d="M90.4506 366.881V376.769L89.8804 376.454L89.8654 366.551L90.4506 366.881Z" fill="#B8B8B8"/>
<path d="M94.8472 364.6V374.234L94.277 373.903V364.285L94.8472 364.6Z" fill="#B8B8B8"/>
<path d="M95.5076 364.015V373.843L94.8474 374.234V364.405L95.5076 364.015Z" fill="#8A8A8A"/>
<path d="M89.8655 366.551L94.9072 363.7L95.4924 364.015L90.4507 366.881L89.8655 366.551Z" fill="#DCDCDC"/>
<path d="M90.4506 366.881L95.5073 364.015V364.675L90.4506 367.541V366.881Z" fill="#8A8A8A"/>
<path d="M86.7893 369.642V378.885L86.129 379.275V370.032L86.7893 369.642Z" fill="#8A8A8A"/>
<path d="M86.1291 369.372V379.275L85.559 378.945V369.042L86.1291 369.372Z" fill="#B8B8B8"/>
<path d="M90.5256 367.091V376.724L89.9554 376.409V366.776L90.5256 367.091Z" fill="#B8B8B8"/>
<path d="M91.1861 366.506V376.334L90.5259 376.724V366.896L91.1861 366.506Z" fill="#8A8A8A"/>
<path d="M85.559 369.042L90.6007 366.191L91.1709 366.521L86.1291 369.372L85.559 369.042Z" fill="#DCDCDC"/>
<path d="M86.129 369.372L91.1857 366.506V367.166L86.129 370.032V369.372Z" fill="#8A8A8A"/>
<path d="M82.468 372.133V381.376L81.8077 381.766V372.523L82.468 372.133Z" fill="#8A8A8A"/>
<path d="M81.8079 371.863V381.766L81.2377 381.436V371.533L81.8079 371.863Z" fill="#B8B8B8"/>
<path d="M86.2043 369.597L86.2194 379.215L85.6342 378.9V369.267L86.2043 369.597Z" fill="#B8B8B8"/>
<path d="M86.8648 368.997L86.8798 378.825L86.2196 379.215L86.2046 369.387L86.8648 368.997Z" fill="#8A8A8A"/>
<path d="M81.2377 371.533L86.2794 368.682L86.8496 369.012L81.8079 371.863L81.2377 371.533Z" fill="#DCDCDC"/>
<path d="M81.8077 371.863L86.8645 368.997V369.657L81.8077 372.523V371.863Z" fill="#8A8A8A"/>
<path d="M78.1465 374.624L78.1616 383.867L77.5013 384.257L77.4863 375.014L78.1465 374.624Z" fill="#8A8A8A"/>
<path d="M77.4861 374.354L77.5011 384.257L76.9159 383.927V374.038L77.4861 374.354Z" fill="#B8B8B8"/>
<path d="M81.8827 372.088L81.8977 381.706L81.3275 381.391L81.3125 371.758L81.8827 372.088Z" fill="#B8B8B8"/>
<path d="M82.543 371.503L82.558 381.316L81.8978 381.706L81.8828 371.893L82.543 371.503Z" fill="#8A8A8A"/>
<path d="M76.916 374.038L81.9577 371.172L82.5279 371.503L77.4862 374.354L76.916 374.038Z" fill="#DCDCDC"/>
<path d="M77.4863 374.354L82.543 371.503V372.148L77.4863 375.014V374.354Z" fill="#8A8A8A"/>
<path d="M44.3103 355.747L52.9532 360.729V364.42L77.5015 350.24L119.786 325.827L116.875 319.6L107.962 319L68.8436 341.568L44.3103 355.747Z" fill="#B43026"/>
<path d="M33.5215 353.197L52.9531 364.42V398.422L33.5215 387.198V353.197Z" fill="#AA1207"/>
<path d="M52.9532 364.42V398.422L77.5016 384.257V350.271L52.9532 364.42Z" fill="#560700"/>
<path d="M77.5016 371.157L52.9532 385.322V380.701L77.5016 366.536V371.157Z" fill="#9E591F"/>
<path d="M50.4174 359.919L52.9532 364.42L77.5015 350.27L74.9507 345.754L50.4174 359.919Z" fill="#810900"/>
<path d="M50.4171 359.919L41.219 354.607L35.0819 351.066L36.9575 349.985L59.6302 336.901L65.7523 340.442L74.9504 345.754L50.4171 359.919Z" fill="#BE3A30"/>
<path d="M25.344 385.832V410.051L49.2171 396.276L49.2321 396.261L49.2171 373.663L25.344 385.832Z" fill="#670900"/>
<path d="M49.2171 381.346L25.344 395.121V390.514L49.2171 376.74V381.346Z" fill="#B06323"/>
<path d="M25.3438 383.687L15.0052 383.897L25.3438 387.453L49.2168 373.663L47.4913 371.052L25.3438 383.687Z" fill="#810900"/>
<path d="M22.8229 374.669L38.2931 365.726L47.4913 371.053L29.5602 381.406L22.7479 385.337L15.0052 383.897L16.3407 378.465L22.8229 374.669Z" fill="#BE3A30"/>
<path d="M13.5348 380.431V403.208L13.6848 403.719L15.0653 408.16L15.0503 403.674V401.573L15.0353 398.257V396.171V392.855L15.0203 390.754V387.438L15.0053 385.352V383.897L13.5348 380.431Z" fill="#EDA930"/>
<path d="M15.0503 403.674L13.6848 403.719L13.5348 403.209V401.633L15.0503 401.573V403.674Z" fill="#6B6E6E"/>
<path d="M15.0353 398.257L13.5348 398.302V396.231L15.0353 396.171V398.257Z" fill="#6B6E6E"/>
<path d="M15.0353 392.855L13.5348 392.9V390.814L15.0203 390.754L15.0353 392.855Z" fill="#6B6E6E"/>
<path d="M15.0203 387.438L13.5348 387.483V385.412L15.0053 385.352L15.0203 387.438Z" fill="#6B6E6E"/>
<path d="M14.4952 382.682L13.5349 382.712V380.641H13.6249L14.4952 382.682Z" fill="#6B6E6E"/>
<path d="M35.082 351.066L33.5215 353.196L52.9531 364.42L50.4172 359.919L35.082 351.066Z" fill="#A20E00"/>
<path d="M14.48 379.515L13.5197 380.416L15.0052 383.897L25.3437 387.453V410.051L27.2043 408.985L27.2193 386.388L14.48 379.515Z" fill="#D47A0D"/>
<path d="M23.6181 384.827L25.3437 387.453L15.0052 383.897L13.5197 380.416L14.48 379.515L23.6181 384.827Z" fill="#FFB030"/>
<path d="M15.0052 383.897V385.352L15.0203 387.438V390.754L15.0353 392.855V396.171V398.257L15.0503 401.573V403.674L15.0653 408.16L19.5218 408.985L21.4724 409.33L21.4874 409.345L24.8936 409.976L25.3438 410.051V387.378L15.0052 383.897Z" fill="#EA9B0E"/>
<path d="M15.0354 392.855L15.0204 390.754H15.0654L25.3439 403.208V405.099L15.0654 392.855H15.0354Z" fill="#4D4F4F"/>
<path d="M15.0204 387.438L15.0054 385.352H15.0654L25.3439 397.792V399.697L15.0654 387.438H15.0204Z" fill="#4D4F4F"/>
<path d="M20.4072 385.713L25.3439 391.685V393.59L18.0814 384.932L20.4072 385.713Z" fill="#4D4F4F"/>
<path d="M15.0354 398.257V396.171H15.0654L25.3439 408.61V410.051L24.8937 409.976L15.0654 398.257H15.0354Z" fill="#4D4F4F"/>
<path d="M15.0654 401.573L21.4726 409.331L19.5219 408.985L15.0654 403.674H15.0504V401.573H15.0654Z" fill="#4D4F4F"/>
<path d="M7.69799 398.677L7.68298 408.13L8.35821 408.535L8.37322 399.067L7.69799 398.677Z" fill="#C4C4C4"/>
<path d="M8.37304 398.392L8.35803 408.535L8.94324 408.205L8.95824 398.062L8.37304 398.392Z" fill="#969696"/>
<path d="M3.87157 396.066L3.85657 405.924L4.44176 405.594L4.45677 395.736L3.87157 396.066Z" fill="#969696"/>
<path d="M3.1964 395.466L3.1814 405.534L3.85663 405.924L3.87163 395.871L3.1964 395.466Z" fill="#C4C4C4"/>
<path d="M8.9585 398.062L3.79675 395.151L3.21155 395.481L8.3733 398.392L8.9585 398.062Z" fill="#E8E8E8"/>
<path d="M8.37329 398.392L3.19653 395.466V396.141L8.37329 399.067V398.392Z" fill="#C4C4C4"/>
<path d="M21.3674 406.645V416.098L22.0427 416.503L22.0577 407.035L21.3674 406.645Z" fill="#C4C4C4"/>
<path d="M22.0575 406.359L22.0425 416.503L22.6277 416.173L22.6427 406.029L22.0575 406.359Z" fill="#969696"/>
<path d="M17.541 404.049V413.892L18.1262 413.562V403.704L17.541 404.049Z" fill="#969696"/>
<path d="M16.866 403.433V413.502L17.5412 413.892V403.839L16.866 403.433Z" fill="#C4C4C4"/>
<path d="M22.6435 406.029L17.4818 403.118L16.8816 403.449L22.0433 406.36L22.6435 406.029Z" fill="#E8E8E8"/>
<path d="M22.0427 406.359L16.866 403.433V404.109L22.0577 407.035L22.0427 406.359Z" fill="#C4C4C4"/>
<path d="M6.06213 402.503L18.6214 409.751V415.257L6.06213 408.01V402.503Z" fill="#B0B0B0"/>
<path d="M18.6214 409.751L6.06213 402.503L6.70735 402.143L19.2666 409.406V414.912L18.6214 414.537V409.751Z" fill="#666666"/>
<path d="M6.06238 407.035V408.01L18.0364 414.612L18.6216 414.282L22.0578 416.263V420.059L5.47718 408.34L2.04102 405.369L2.62622 405.039L6.06238 407.035Z" fill="#D9D9D9"/>
<path d="M22.0576 416.263L21.4724 416.593V420.389L22.0576 420.059V416.263Z" fill="#666666"/>
<path d="M5.47718 407.35V408.34L18.0364 415.588V414.612L21.4726 416.593V420.389L2.04102 409.165V405.369L5.47718 407.35Z" fill="#B0B0B0"/>
<path d="M16.3406 378.465L14.48 379.515L15.0052 383.897L23.6181 384.827L25.4787 383.762L16.3406 378.465Z" fill="#F2BD60"/>
<path d="M23.618 384.827L25.3436 387.453L27.2193 386.388L25.4787 383.762L23.618 384.827Z" fill="#E39E2F"/>
<path d="M41.8343 365.005L41.8193 360.894C41.8193 360.639 41.6842 360.414 41.4742 360.294L34.8869 356.498C34.7069 356.393 34.4668 356.528 34.4668 356.738L34.4818 360.849C34.4818 361.104 34.6169 361.329 34.8269 361.449L41.4142 365.246C41.6092 365.351 41.8343 365.216 41.8343 365.005Z" fill="#B0B0B0"/>
<path d="M41.6992 365.08L41.6842 360.969C41.6842 360.714 41.5491 360.489 41.339 360.369L34.7518 356.573C34.5717 356.468 34.3317 356.603 34.3317 356.813L34.3467 360.924C34.3467 361.179 34.4817 361.404 34.6918 361.524L41.279 365.321C41.4591 365.426 41.6992 365.291 41.6992 365.08Z" fill="#DDDEDE"/>
<path d="M34.7068 356.948C34.7368 356.903 34.7968 356.873 34.8568 356.903L41.0839 360.504C41.234 360.594 41.324 360.744 41.324 360.924L41.339 364.87C41.339 364.885 41.339 364.915 41.324 364.93C41.294 364.975 41.234 365.005 41.174 364.975L34.9469 361.374C34.7968 361.284 34.7068 361.134 34.7068 360.954L34.6918 357.008C34.6918 356.978 34.7068 356.963 34.7068 356.948Z" fill="url(#paint0_linear)"/>
<path d="M41.324 364.915V364.9H41.309L35.0819 361.299C34.9319 361.209 34.8418 361.059 34.8418 360.879L34.8268 356.933C34.8268 356.918 34.8268 356.918 34.8418 356.903C34.7818 356.873 34.7368 356.903 34.7068 356.948C34.6918 356.963 34.6918 356.978 34.6918 357.008L34.7068 360.939C34.7068 361.104 34.7968 361.269 34.9469 361.359L41.174 364.96C41.234 364.99 41.294 364.96 41.324 364.915Z" fill="#232526"/>
<path d="M51.3926 370.512L51.3776 366.401C51.3776 366.146 51.2426 365.921 51.0325 365.801L44.4453 362.004C44.2652 361.899 44.0251 362.034 44.0251 362.245L44.0402 366.356C44.0402 366.611 44.1752 366.836 44.3853 366.956L50.9725 370.752C51.1676 370.872 51.3926 370.737 51.3926 370.512Z" fill="#B0B0B0"/>
<path d="M51.2576 370.587L51.2426 366.476C51.2426 366.221 51.1076 365.996 50.8975 365.876L44.3103 362.08C44.1302 361.974 43.8901 362.11 43.8901 362.32L43.9051 366.431C43.9051 366.686 44.0402 366.911 44.2503 367.031L50.8375 370.827C51.0326 370.933 51.2576 370.797 51.2576 370.587Z" fill="#DDDEDE"/>
<path d="M44.2652 362.455C44.2953 362.41 44.3553 362.38 44.4153 362.41L50.6424 366.011C50.7925 366.101 50.8825 366.251 50.8825 366.431L50.8975 370.377C50.8975 370.392 50.8975 370.422 50.8825 370.437C50.8525 370.482 50.7925 370.512 50.7324 370.482L44.5053 366.881C44.3553 366.791 44.2652 366.641 44.2652 366.461L44.2502 362.515C44.2502 362.5 44.2652 362.47 44.2652 362.455Z" fill="url(#paint1_linear)"/>
<path d="M50.8825 370.422V370.407H50.8675L44.6404 366.806C44.4903 366.716 44.4003 366.566 44.4003 366.386L44.3853 362.44C44.3853 362.425 44.3853 362.425 44.4003 362.41C44.3403 362.38 44.2953 362.41 44.2652 362.455C44.2502 362.47 44.2502 362.485 44.2502 362.515L44.2652 366.461C44.2652 366.626 44.3553 366.791 44.5053 366.881L50.7324 370.482C50.7925 370.497 50.8525 370.467 50.8825 370.422Z" fill="#232526"/>
<path d="M57.7245 379.185L57.7395 366.401C57.7395 366.146 57.8745 365.921 58.0846 365.801L62.7362 363.145C62.9163 363.04 63.1563 363.175 63.1563 363.385L63.1413 376.169C63.1413 376.424 63.0063 376.649 62.7962 376.769L58.1446 379.425C57.9496 379.53 57.7245 379.395 57.7245 379.185Z" fill="#707070"/>
<path d="M57.8599 379.245L57.8749 366.461C57.8749 366.206 58.0099 365.981 58.22 365.861L62.8716 363.205C63.0516 363.1 63.2917 363.235 63.2917 363.445L63.2767 376.229C63.2767 376.484 63.1416 376.709 62.9316 376.83L58.28 379.485C58.0999 379.59 57.8599 379.455 57.8599 379.245Z" fill="#959595"/>
<path d="M62.9166 363.595C62.8866 363.55 62.8265 363.52 62.7665 363.55L58.4751 366.011C58.325 366.101 58.235 366.251 58.235 366.431L58.22 379.035C58.22 379.05 58.22 379.08 58.235 379.095C58.265 379.14 58.325 379.17 58.385 379.14L62.6765 376.679C62.8265 376.589 62.9166 376.439 62.9166 376.259L62.9316 363.655C62.9316 363.64 62.9166 363.625 62.9166 363.595Z" fill="url(#paint2_linear)"/>
<path d="M58.235 379.095V379.08H58.25L62.5414 376.619C62.6915 376.529 62.7815 376.379 62.7815 376.199L62.7965 363.595C62.7965 363.58 62.7965 363.58 62.7815 363.565C62.8415 363.535 62.8866 363.565 62.9166 363.61C62.9316 363.625 62.9316 363.64 62.9316 363.67L62.9166 376.274C62.9166 376.439 62.8265 376.604 62.6765 376.695L58.385 379.155C58.325 379.155 58.265 379.14 58.235 379.095Z" fill="black"/>
<path d="M66.6075 366.521L66.6225 362.41C66.6225 362.155 66.7576 361.929 66.9677 361.809L73.5549 358.013C73.735 357.908 73.975 358.043 73.975 358.253L73.96 362.365C73.96 362.62 73.825 362.845 73.6149 362.965L67.0277 366.761C66.8326 366.866 66.6075 366.731 66.6075 366.521Z" fill="#707070"/>
<path d="M66.7427 366.581L66.7577 362.47C66.7577 362.214 66.8927 361.989 67.1028 361.869L73.69 358.073C73.8701 357.968 74.1102 358.103 74.1102 358.313L74.0952 362.425C74.0952 362.68 73.9601 362.905 73.75 363.025L67.1628 366.821C66.9828 366.926 66.7427 366.791 66.7427 366.581Z" fill="#959595"/>
<path d="M73.735 358.448C73.705 358.403 73.645 358.373 73.585 358.403L67.3579 362.004C67.2078 362.094 67.1178 362.244 67.1178 362.425L67.1028 366.371C67.1028 366.386 67.1028 366.416 67.1178 366.431C67.1478 366.476 67.2078 366.506 67.2678 366.476L73.495 362.875C73.645 362.785 73.735 362.635 73.735 362.455L73.75 358.508C73.75 358.493 73.75 358.463 73.735 358.448Z" fill="url(#paint3_linear)"/>
<path d="M67.1178 366.416V366.401H67.1328L73.3599 362.8C73.51 362.71 73.6 362.56 73.6 362.38L73.615 358.433C73.615 358.418 73.615 358.418 73.6 358.403C73.66 358.373 73.705 358.403 73.735 358.448C73.7501 358.463 73.75 358.478 73.75 358.508L73.735 362.455C73.735 362.62 73.645 362.785 73.495 362.875L67.2678 366.476C67.2078 366.491 67.1478 366.461 67.1178 366.416Z" fill="black"/>
<path d="M105.621 338.912V341.057L111.278 337.771V335.625L105.621 338.912Z" fill="#5E5E5E"/>
<path d="M110.873 337.531V336.331L106.026 339.152V340.352L110.873 337.531Z" fill="#262426"/>
<path d="M110.603 337.381V336.451L110.873 336.331V337.531L106.026 340.352V340.037L110.603 337.381Z" fill="#8D9DA8"/>
<path d="M110.603 337.381L110.873 337.531L106.026 340.352V340.037L110.603 337.381Z" fill="#9CA7AD"/>
<path d="M105.621 340.607V342.753L111.278 339.452V337.321L105.621 340.607Z" fill="#5E5E5E"/>
<path d="M110.873 339.227V338.011L106.026 340.832V342.048L110.873 339.227Z" fill="#262426"/>
<path d="M110.603 339.062V338.146L110.873 338.011V339.227L106.026 342.048V341.717L110.603 339.062Z" fill="#8D9DA8"/>
<path d="M110.603 339.062L110.873 339.227L106.026 342.048V341.718L110.603 339.062Z" fill="#9CA7AD"/>
<path d="M105.621 342.288V344.434L111.278 341.147V339.002L105.621 342.288Z" fill="#5E5E5E"/>
<path d="M110.873 340.907V339.707L106.026 342.528V343.728L110.873 340.907Z" fill="#262426"/>
<path d="M110.603 340.757V339.827L110.873 339.707V340.907L106.026 343.728V343.413L110.603 340.757Z" fill="#8D9DA8"/>
<path d="M110.603 340.757L110.873 340.907L106.026 343.728V343.413L110.603 340.757Z" fill="#9CA7AD"/>
<path d="M105.621 343.983V346.129L111.278 342.843V340.697L105.621 343.983Z" fill="#5E5E5E"/>
<path d="M110.873 342.603V341.403L106.026 344.224V345.424L110.873 342.603Z" fill="#262426"/>
<path d="M110.603 342.438V341.523L110.873 341.403V342.603L106.026 345.424V345.094L110.603 342.438Z" fill="#8D9DA8"/>
<path d="M110.603 342.438L110.873 342.603L106.026 345.424V345.094L110.603 342.438Z" fill="#9CA7AD"/>
<path d="M105.621 345.679V347.81L111.278 344.524V342.378L105.621 345.679Z" fill="#5E5E5E"/>
<path d="M110.873 344.298V343.083L106.026 345.904V347.119L110.873 344.298Z" fill="#262426"/>
<path d="M110.603 344.133V343.203L110.873 343.083V344.298L106.026 347.119V346.789L110.603 344.133Z" fill="#8D9DA8"/>
<path d="M110.603 344.133L110.873 344.298L106.026 347.119V346.789L110.603 344.133Z" fill="#9CA7AD"/>
<path d="M110.873 335.851V337.981L116.545 334.695V332.564L110.873 335.851Z" fill="#5E5E5E"/>
<path d="M116.139 334.47V333.255L111.278 336.076V337.291L116.139 334.47Z" fill="#262426"/>
<path d="M115.854 334.305V333.39L116.139 333.255V334.47L111.278 337.291V336.961L115.854 334.305Z" fill="#8D9DA8"/>
<path d="M115.854 334.305L116.139 334.47L111.278 337.291V336.961L115.854 334.305Z" fill="#9CA7AD"/>
<path d="M110.873 337.531V339.677L116.545 336.391V334.245L110.873 337.531Z" fill="#5E5E5E"/>
<path d="M116.139 336.151V334.95L111.278 337.771V338.972L116.139 336.151Z" fill="#262426"/>
<path d="M115.854 336.001V335.07L116.139 334.95V336.151L111.278 338.972V338.657L115.854 336.001Z" fill="#8D9DA8"/>
<path d="M115.854 336.001L116.139 336.151L111.278 338.972V338.657L115.854 336.001Z" fill="#9CA7AD"/>
<path d="M110.873 339.227V341.373L116.545 338.071V335.941L110.873 339.227Z" fill="#5E5E5E"/>
<path d="M116.139 337.846V336.631L111.278 339.452V340.667L116.139 337.846Z" fill="#262426"/>
<path d="M115.854 337.681V336.766L116.139 336.631V337.846L111.278 340.667V340.337L115.854 337.681Z" fill="#8D9DA8"/>
<path d="M115.854 337.681L116.139 337.846L111.278 340.667V340.337L115.854 337.681Z" fill="#9CA7AD"/>
<path d="M110.873 340.907V343.053L116.545 339.767V337.621L110.873 340.907Z" fill="#5E5E5E"/>
<path d="M116.139 339.527V338.326L111.278 341.147V342.348L116.139 339.527Z" fill="#262426"/>
<path d="M115.854 339.377V338.446L116.139 338.326V339.527L111.278 342.348V342.033L115.854 339.377Z" fill="#8D9DA8"/>
<path d="M115.854 339.377L116.139 339.527L111.278 342.348V342.033L115.854 339.377Z" fill="#9CA7AD"/>
<path d="M110.873 342.603V344.749L116.545 341.463V339.317L110.873 342.603Z" fill="#5E5E5E"/>
<path d="M116.139 341.222V340.022L111.278 342.843V344.043L116.139 341.222Z" fill="#262426"/>
<path d="M115.854 341.057V340.142L116.139 340.022V341.222L111.278 344.043V343.713L115.854 341.057Z" fill="#8D9DA8"/>
<path d="M115.854 341.057L116.139 341.222L111.278 344.043V343.713L115.854 341.057Z" fill="#9CA7AD"/>
<path d="M44.9701 356.738L48.2713 354.172C48.2713 352.686 46.6807 350.841 45.2552 350.466C44.3249 350.225 41.9391 351.501 40.5286 352.881C39.8084 353.587 44.9701 356.738 44.9701 356.738Z" fill="#DE5950"/>
<path d="M40.2437 354.007C40.2437 355.492 41.309 357.308 42.6145 358.058C43.9199 358.808 44.9853 358.223 44.9853 356.738C44.9853 355.252 43.9199 353.437 42.6145 352.686C41.294 351.921 40.2437 352.521 40.2437 354.007Z" fill="#BAD1E0"/>
<path d="M40.319 354.682C41.1893 354.307 43.0349 354.007 44.9555 356.873C44.8805 358.238 43.8602 358.778 42.5997 358.058C41.4894 357.413 40.5741 356.002 40.319 354.682Z" fill="#DCEDFF"/>
<path d="M42.1345 354.682C42.1345 355.162 42.4796 355.747 42.8998 355.987C43.3199 356.227 43.665 356.032 43.665 355.552C43.665 355.072 43.3199 354.487 42.8998 354.247C42.4796 354.007 42.1345 354.202 42.1345 354.682Z" fill="#FAFAFA"/>
<path d="M101.825 324.222V325.677C101.825 326.998 103.175 328.138 105.156 328.693C105.366 328.753 105.591 328.813 105.816 328.843C105.906 328.858 105.996 328.873 106.086 328.888C106.161 328.903 106.221 328.918 106.281 328.918C106.356 328.933 106.431 328.933 106.506 328.948C106.686 328.978 106.881 328.978 107.076 328.993C107.152 328.993 107.242 329.008 107.332 329.008C107.482 329.008 107.632 329.008 107.782 329.008C107.932 329.008 108.082 329.008 108.232 329.008C108.307 329.008 108.397 328.993 108.472 328.993C108.667 328.978 108.847 328.963 109.042 328.948C109.117 328.933 109.192 328.933 109.267 328.918C109.327 328.918 109.402 328.903 109.462 328.888C109.552 328.873 109.642 328.858 109.732 328.843C109.957 328.798 110.183 328.753 110.393 328.693C110.513 328.663 110.618 328.633 110.723 328.588C110.933 328.513 111.128 328.453 111.323 328.363C111.398 328.333 111.458 328.318 111.518 328.288C111.668 328.213 111.833 328.138 111.968 328.063C112.043 328.018 112.103 327.988 112.163 327.943C112.358 327.823 112.553 327.688 112.703 327.538C112.748 327.493 112.793 327.463 112.838 327.418C112.928 327.328 113.034 327.223 113.109 327.133C113.184 327.043 113.259 326.938 113.319 326.848C113.364 326.773 113.409 326.698 113.454 326.622C113.499 326.547 113.529 326.472 113.559 326.397C113.559 326.382 113.574 326.367 113.574 326.352C113.589 326.307 113.604 326.277 113.619 326.232C113.619 326.217 113.634 326.187 113.634 326.157C113.679 326.007 113.694 325.842 113.694 325.677V324.222H101.825Z" fill="#858585"/>
<path d="M105.156 324.222V328.693C105.366 328.753 105.591 328.813 105.816 328.843C105.906 328.858 105.996 328.873 106.086 328.888C106.161 328.903 106.221 328.918 106.281 328.918C106.356 328.933 106.431 328.933 106.506 328.948C106.687 328.978 106.882 328.978 107.077 328.993C107.152 328.993 107.242 329.008 107.332 329.008C107.482 329.008 107.632 329.008 107.782 329.008C107.932 329.008 108.082 329.008 108.232 329.008C108.307 329.008 108.397 328.993 108.472 328.993C108.667 328.978 108.847 328.963 109.042 328.948C109.117 328.933 109.192 328.933 109.267 328.918C109.327 328.918 109.402 328.903 109.462 328.888C109.553 328.873 109.643 328.858 109.733 328.843C109.958 328.798 110.183 328.753 110.393 328.693V324.222H105.156Z" fill="#707070"/>
<path d="M110.378 324.222V328.693C110.498 328.663 110.603 328.633 110.708 328.588C110.918 328.513 111.113 328.453 111.308 328.363C111.383 328.333 111.443 328.318 111.503 328.288C111.653 328.213 111.818 328.138 111.953 328.063C112.028 328.018 112.088 327.988 112.148 327.943C112.343 327.823 112.538 327.688 112.688 327.538C112.733 327.493 112.778 327.463 112.824 327.418C112.914 327.328 113.019 327.223 113.094 327.133C113.169 327.043 113.244 326.938 113.304 326.848C113.349 326.773 113.394 326.698 113.439 326.622C113.484 326.547 113.514 326.472 113.544 326.397C113.544 326.382 113.559 326.367 113.559 326.352C113.574 326.307 113.589 326.277 113.604 326.232C113.604 326.217 113.619 326.187 113.619 326.157C113.664 326.007 113.679 325.842 113.679 325.677V324.222H110.378Z" fill="#525252"/>
<path d="M101.825 324.222C101.825 325.542 103.175 326.682 105.156 327.238C105.951 327.463 106.837 327.583 107.767 327.583C108.712 327.583 109.597 327.463 110.378 327.238C112.343 326.697 113.709 325.542 113.709 324.222C113.709 323.096 112.719 322.091 111.188 321.476C111.008 321.401 110.828 321.341 110.633 321.281C110.543 321.251 110.453 321.221 110.363 321.206C109.567 320.981 108.682 320.86 107.752 320.86C106.807 320.86 105.921 320.981 105.141 321.206C103.175 321.761 101.825 322.901 101.825 324.222Z" fill="#8A8A8A"/>
<path d="M77.0065 338.582V340.037C77.0065 341.357 78.3569 342.498 80.3376 343.053C80.5477 343.113 80.7727 343.173 80.9978 343.203C81.0878 343.218 81.1779 343.233 81.2679 343.248C81.3429 343.263 81.403 343.278 81.463 343.278C81.538 343.293 81.613 343.293 81.688 343.308C81.8681 343.338 82.0632 343.353 82.2583 343.353C82.3333 343.353 82.4233 343.368 82.5133 343.368C82.6634 343.368 82.8134 343.368 82.9635 343.368C83.1135 343.368 83.2636 343.368 83.4136 343.368C83.4887 343.368 83.5787 343.353 83.6537 343.353C83.8488 343.338 84.0288 343.323 84.2239 343.308C84.2989 343.293 84.374 343.293 84.449 343.278C84.509 343.278 84.584 343.263 84.6441 343.248C84.7341 343.233 84.8241 343.218 84.9141 343.203C85.1392 343.158 85.3643 343.113 85.5744 343.053C85.6944 343.023 85.7995 342.993 85.9045 342.948C86.1146 342.873 86.3096 342.813 86.5047 342.723C86.5797 342.693 86.6397 342.678 86.6998 342.648C86.8498 342.573 87.0149 342.498 87.1499 342.423C87.2249 342.378 87.285 342.348 87.345 342.303C87.54 342.183 87.7351 342.048 87.8852 341.898C87.9302 341.853 87.9752 341.823 88.0202 341.778C88.1102 341.688 88.2153 341.583 88.2903 341.493C88.3653 341.402 88.4403 341.297 88.5004 341.207C88.5454 341.132 88.5904 341.057 88.6354 340.982C88.6804 340.907 88.7104 340.832 88.7404 340.757C88.7404 340.742 88.7554 340.727 88.7554 340.712C88.7704 340.667 88.7855 340.637 88.8005 340.592C88.8005 340.577 88.8155 340.547 88.8155 340.517C88.8605 340.367 88.8755 340.202 88.8755 340.037V338.582H77.0065Z" fill="#858585"/>
<path d="M80.3374 338.582V343.053C80.5475 343.113 80.7725 343.173 80.9976 343.203C81.0876 343.218 81.1777 343.233 81.2677 343.248C81.3427 343.263 81.4028 343.278 81.4628 343.278C81.5378 343.293 81.6128 343.293 81.6879 343.308C81.8679 343.338 82.063 343.353 82.2581 343.353C82.3331 343.353 82.4231 343.368 82.5131 343.368C82.6632 343.368 82.8132 343.368 82.9633 343.368C83.1133 343.368 83.2634 343.368 83.4134 343.368C83.4885 343.368 83.5785 343.353 83.6535 343.353C83.8486 343.338 84.0286 343.323 84.2237 343.308C84.2987 343.293 84.3738 343.293 84.4488 343.278C84.5088 343.278 84.5838 343.263 84.6439 343.248C84.7339 343.233 84.8239 343.218 84.9139 343.203C85.139 343.158 85.3641 343.113 85.5742 343.053V338.582H80.3374Z" fill="#707070"/>
<path d="M85.5742 338.582V343.053C85.6943 343.023 85.7993 342.993 85.9043 342.948C86.1144 342.873 86.3095 342.813 86.5045 342.723C86.5796 342.693 86.6396 342.678 86.6996 342.648C86.8497 342.573 87.0147 342.498 87.1497 342.423C87.2248 342.378 87.2848 342.348 87.3448 342.303C87.5399 342.183 87.735 342.048 87.885 341.898C87.93 341.853 87.975 341.823 88.02 341.778C88.1101 341.688 88.2151 341.583 88.2901 341.493C88.3652 341.402 88.4402 341.297 88.5002 341.207C88.5452 341.132 88.5902 341.057 88.6353 340.982C88.6803 340.907 88.7103 340.832 88.7403 340.757C88.7403 340.742 88.7553 340.727 88.7553 340.712C88.7703 340.667 88.7853 340.637 88.8003 340.592C88.8003 340.577 88.8153 340.547 88.8153 340.517C88.8603 340.367 88.8753 340.202 88.8753 340.037V338.582H85.5742Z" fill="#525252"/>
<path d="M77.0065 338.582C77.0065 339.902 78.3569 341.042 80.3376 341.598C81.1329 341.823 82.0182 341.943 82.9485 341.943C83.8788 341.943 84.7791 341.823 85.5594 341.598C87.525 341.057 88.8905 339.902 88.8905 338.582C88.8905 337.456 87.9002 336.451 86.3696 335.836C86.1896 335.761 86.0095 335.701 85.8144 335.641C85.7244 335.611 85.6344 335.581 85.5444 335.566C84.7491 335.34 83.8638 335.22 82.9335 335.22C82.0032 335.22 81.1029 335.34 80.3226 335.566C78.3569 336.121 77.0065 337.261 77.0065 338.582Z" fill="#8A8A8A"/>
<path d="M48.5565 391.729V400.958L47.8962 401.348V392.12L48.5565 391.729Z" fill="#8A8A8A"/>
<path d="M47.8962 391.459V401.348L47.326 401.033L47.311 391.129L47.8962 391.459Z" fill="#B8B8B8"/>
<path d="M52.2929 389.179V398.812L51.7227 398.482V388.864L52.2929 389.179Z" fill="#B8B8B8"/>
<path d="M52.9529 388.594V398.422L52.2927 398.812V388.984L52.9529 388.594Z" fill="#8A8A8A"/>
<path d="M47.3114 391.129L52.3681 388.278L52.9383 388.593L47.8966 391.459L47.3114 391.129Z" fill="#DCDCDC"/>
<path d="M47.8962 391.459L52.953 388.594V389.254L47.8962 392.12V391.459Z" fill="#8A8A8A"/>
<path d="M44.2503 394.205V403.448L43.5901 403.839V394.595L44.2503 394.205Z" fill="#8A8A8A"/>
<path d="M43.5902 393.935V403.838L43.02 403.508L43.005 393.62L43.5902 393.935Z" fill="#B8B8B8"/>
<path d="M47.9864 391.669V401.303L47.4163 400.973V391.339L47.9864 391.669Z" fill="#B8B8B8"/>
<path d="M48.6469 391.084V400.913L47.9867 401.303V391.474L48.6469 391.084Z" fill="#8A8A8A"/>
<path d="M43.005 393.62L48.0617 390.769L48.6319 391.084L43.5902 393.935L43.005 393.62Z" fill="#DCDCDC"/>
<path d="M43.5901 393.935L48.6468 391.084V391.744L43.5901 394.595V393.935Z" fill="#8A8A8A"/>
<path d="M39.9436 396.696V405.939L39.2833 406.329V397.086L39.9436 396.696Z" fill="#8A8A8A"/>
<path d="M39.2837 396.426V406.329L38.7135 405.999L38.6985 396.096L39.2837 396.426Z" fill="#B8B8B8"/>
<path d="M43.6799 394.16V403.779L43.1097 403.463V393.83L43.6799 394.16Z" fill="#B8B8B8"/>
<path d="M44.3404 393.56V403.388L43.6802 403.779V393.95L44.3404 393.56Z" fill="#8A8A8A"/>
<path d="M38.6984 396.096L43.7401 393.245L44.3253 393.575L39.2836 396.426L38.6984 396.096Z" fill="#DCDCDC"/>
<path d="M39.2833 396.426L44.34 393.56V394.22L39.2833 397.086V396.426Z" fill="#8A8A8A"/>
<path d="M35.6372 399.172V408.415L34.9769 408.805V399.562L35.6372 399.172Z" fill="#8A8A8A"/>
<path d="M34.9774 398.917V408.805L34.4072 408.49L34.3922 398.587L34.9774 398.917Z" fill="#B8B8B8"/>
<path d="M39.3735 396.636V406.269L38.8033 405.939V396.321L39.3735 396.636Z" fill="#B8B8B8"/>
<path d="M40.034 396.051V405.879L39.3738 406.269V396.441L40.034 396.051Z" fill="#8A8A8A"/>
<path d="M34.3923 398.587L39.434 395.736L40.0192 396.051L34.9775 398.917L34.3923 398.587Z" fill="#DCDCDC"/>
<path d="M34.9769 398.917L40.0336 396.051V396.711L34.9769 399.562V398.917Z" fill="#8A8A8A"/>
<path d="M31.3306 401.663V410.906L30.6704 411.296L30.6554 402.053L31.3306 401.663Z" fill="#8A8A8A"/>
<path d="M30.6555 401.393L30.6705 411.296L30.1003 410.966L30.0853 401.078L30.6555 401.393Z" fill="#B8B8B8"/>
<path d="M35.067 399.127V408.76L34.4968 408.43L34.4818 398.797L35.067 399.127Z" fill="#B8B8B8"/>
<path d="M35.7275 398.542V408.355L35.0673 408.76V398.932L35.7275 398.542Z" fill="#8A8A8A"/>
<path d="M30.0854 401.078L35.1272 398.212L35.7124 398.542L30.6707 401.393L30.0854 401.078Z" fill="#DCDCDC"/>
<path d="M30.6704 401.393L35.7271 398.542V399.187L30.6554 402.053L30.6704 401.393Z" fill="#8A8A8A"/>
<path d="M27.0092 404.154L27.0242 413.397L26.364 413.787L26.349 404.544L27.0092 404.154Z" fill="#8A8A8A"/>
<path d="M26.3491 403.884L26.3641 413.787L25.7939 413.457L25.7789 403.553L26.3491 403.884Z" fill="#B8B8B8"/>
<path d="M30.7606 401.603V411.236L30.1904 410.921L30.1754 401.288L30.7606 401.603Z" fill="#B8B8B8"/>
<path d="M31.4211 401.018V410.846L30.7609 411.236V401.408L31.4211 401.018Z" fill="#8A8A8A"/>
<path d="M25.7792 403.553L30.8209 400.703L31.4061 401.033L26.3644 403.884L25.7792 403.553Z" fill="#DCDCDC"/>
<path d="M26.364 403.884L31.4207 401.018V401.678L26.349 404.544L26.364 403.884Z" fill="#8A8A8A"/>
<path d="M22.7028 406.63L22.7178 415.873L22.0576 416.263L22.0426 407.02L22.7028 406.63Z" fill="#8A8A8A"/>
<path d="M22.0426 406.359L22.0576 416.263L21.4874 415.948L21.4724 406.044L22.0426 406.359Z" fill="#B8B8B8"/>
<path d="M26.4542 404.094V413.727L25.884 413.397L25.869 403.779L26.4542 404.094Z" fill="#B8B8B8"/>
<path d="M27.1147 403.508V413.337L26.4545 413.727V403.899L27.1147 403.508Z" fill="#8A8A8A"/>
<path d="M21.4724 406.044L26.5141 403.193L27.0993 403.508L22.0576 406.359L21.4724 406.044Z" fill="#DCDCDC"/>
<path d="M22.0576 406.359L27.1143 403.508V404.169L22.0426 407.02L22.0576 406.359Z" fill="#8A8A8A"/>
<path d="M1.74087 409.12L0.750533 404.664L5.40211 410.156L22.778 417.388L24.2635 422.34L22.778 429.467L22.0277 430.083L0.435425 416.953L1.74087 409.12Z" fill="#262626"/>
<path d="M0.300171 405.219L4.96675 410.711L6.16716 416.833L1.30551 409.676L0.300171 405.219Z" fill="#5F6169"/>
<path d="M4.96716 410.711L6.16757 416.833L23.5285 422.955L22.3431 417.943L4.96716 410.711Z" fill="#3F4045"/>
<path d="M1.30569 409.676L6.10731 416.833L4.71184 424.666L0.000244141 417.523L1.30569 409.676Z" fill="#70727B"/>
<path d="M6.10714 416.833L4.71167 424.666L22.0275 430.082L23.528 422.955L6.10714 416.833Z" fill="#696B73"/>
<path d="M6.06213 407.035V408.01L5.47693 408.34V407.35L6.06213 407.035Z" fill="#666666"/>
<path d="M19.2666 409.406L18.6214 409.751L6.06213 402.503L6.70735 402.143L19.2666 409.406Z" fill="#D9D9D9"/>
<path d="M0.750203 404.664L0.300049 405.219L4.96663 410.711L22.3425 417.943L22.7777 417.388L5.40178 410.156L0.750203 404.664Z" fill="#94959C"/>
<path d="M19.2966 388.564C19.8218 388.308 20.407 388.669 20.602 389.359C20.7971 390.049 20.527 390.829 20.0018 391.084C19.4766 391.339 18.8914 390.979 18.6964 390.289C18.5013 389.599 18.7714 388.819 19.2966 388.564Z" fill="#C7E3FF"/>
<path d="M19.1315 388.714C18.9665 389.059 18.9065 389.479 19.0265 389.884C19.2216 390.574 19.8068 390.934 20.3319 390.679C20.392 390.649 20.452 390.589 20.497 390.544C20.3769 390.784 20.2269 390.994 20.0018 391.099C19.4766 391.355 18.8914 390.994 18.6964 390.304C18.5313 389.674 18.7264 389.029 19.1315 388.714Z" fill="#803400"/>
<path d="M14.2401 385.682C14.4802 385.772 14.7352 386.478 14.8103 387.273C14.8703 388.053 14.7352 388.623 14.4802 388.533C14.2401 388.443 13.985 387.738 13.91 386.943C13.8499 386.163 14 385.592 14.2401 385.682Z" fill="#C7E3FF"/>
<path d="M14.1651 385.712C14.0751 385.937 14.045 386.298 14.0751 386.763C14.1351 387.543 14.3902 388.263 14.6453 388.353C14.6753 388.368 14.7053 388.338 14.7203 388.323C14.6603 388.473 14.5852 388.578 14.4802 388.533C14.2401 388.443 13.985 387.738 13.91 386.943C13.865 386.253 13.97 385.772 14.1651 385.712Z" fill="#803400"/>
<path d="M14.7651 409.571V410.921C14.7651 411.176 14.9002 411.401 15.0953 411.521L17.346 412.767C17.5261 412.872 17.7512 412.707 17.7512 412.482V412.316L15.8605 411.266C15.6504 411.146 15.5304 410.921 15.5304 410.666V409.481L15.1553 409.285C15.0052 409.195 14.7651 409.345 14.7651 409.571Z" fill="#787A7B"/>
<path d="M15.5455 409.496V410.681C15.5455 410.711 15.5455 410.756 15.5605 410.786C15.5906 410.996 15.7106 411.176 15.8906 411.281L17.7813 412.317V411.131C17.7813 411.056 17.7663 410.981 17.7513 410.921C17.7063 410.756 17.5862 410.621 17.4512 410.531L15.5455 409.496Z" fill="#D41000"/>
<path d="M15.5607 410.786C15.5907 410.996 15.7107 411.176 15.8908 411.281L17.7814 412.317V412.002L16.671 410.846L15.5607 410.786Z" fill="#D40404"/>
<path d="M15.5455 409.496V409.691L16.6709 410.861L17.7363 410.936C17.6913 410.771 17.5712 410.636 17.4362 410.546L15.5455 409.496Z" fill="#97100C"/>
<path d="M6.75256 405.054V406.405C6.75256 406.66 6.88761 406.885 7.08268 407.005L9.33344 408.25C9.5135 408.355 9.73858 408.19 9.73858 407.965V407.8L7.84793 406.75C7.63786 406.63 7.51783 406.405 7.51783 406.149V404.964L7.1577 404.769C6.97764 404.664 6.75256 404.829 6.75256 405.054Z" fill="#787A7B"/>
<path d="M7.53271 404.964V406.149C7.53271 406.179 7.53272 406.224 7.54772 406.254C7.57773 406.464 7.69777 406.645 7.87783 406.75L9.76848 407.785V406.6C9.76848 406.525 9.75347 406.449 9.73846 406.389C9.69345 406.224 9.57341 406.089 9.43836 405.999L7.53271 404.964Z" fill="#D41000"/>
<path d="M7.53284 406.27C7.56285 406.48 7.68289 406.66 7.86295 406.765L9.75359 407.8V407.485L8.64322 406.33L7.53284 406.27Z" fill="#D40404"/>
<path d="M7.53271 404.964V405.159L8.6581 406.329L9.72346 406.404C9.67844 406.239 9.5584 406.104 9.42336 406.014L7.53271 404.964Z" fill="#97100C"/>
<path d="M67.9132 373.843V385.142C67.9132 385.787 68.6185 386.193 69.1736 385.863L73.045 383.627C73.7052 383.252 74.1103 382.546 74.1103 381.781V370.482C74.1103 369.837 73.4051 369.432 72.8499 369.762L68.9786 371.998C68.3183 372.388 67.9132 373.093 67.9132 373.843ZM68.1983 373.843C68.1983 373.183 68.5584 372.568 69.1136 372.253L72.9849 370.017C73.075 369.972 73.165 369.942 73.27 369.942C73.5401 369.942 73.8252 370.152 73.8252 370.497V381.796C73.8252 382.456 73.4651 383.057 72.9099 383.387L69.0386 385.622C68.9486 385.667 68.8585 385.697 68.7685 385.697C68.4984 385.697 68.2133 385.487 68.2133 385.142V373.843H68.1983Z" fill="#670900"/>
<defs>
<linearGradient id="paint0_linear" x1="42.1631" y1="355.819" x2="29.8391" y2="371.012" gradientUnits="userSpaceOnUse">
<stop stop-color="#BAEAFF"/>
<stop offset="0.8079" stop-color="#567890"/>
</linearGradient>
<linearGradient id="paint1_linear" x1="54.5205" y1="357.882" x2="42.1962" y2="373.075" gradientUnits="userSpaceOnUse">
<stop stop-color="#BAEAFF"/>
<stop offset="0.8079" stop-color="#567890"/>
</linearGradient>
<linearGradient id="paint2_linear" x1="34.6738" y1="371.553" x2="67.1902" y2="371.292" gradientUnits="userSpaceOnUse">
<stop stop-color="#8AAFBF"/>
<stop offset="0.8079" stop-color="#2F4250"/>
</linearGradient>
<linearGradient id="paint3_linear" x1="34.6027" y1="362.725" x2="67.1193" y2="362.464" gradientUnits="userSpaceOnUse">
<stop stop-color="#8AAFBF"/>
<stop offset="0.8079" stop-color="#2F4250"/>
</linearGradient>
</defs>
</svg>
